<?xml version="1.0" encoding="utf-8"?>
<!-- Generator: Adobe Illustrator 24.3.0, SVG Export Plug-In . SVG Version: 6.00 Build 0)  -->
<svg version="1.1" id="Layer_1" xmlns="http://www.w3.org/2000/svg" xmlns:xlink="http://www.w3.org/1999/xlink" x="0px" y="0px"
	 viewBox="0 0 406 306" style="enable-background:new 0 0 406 306;" xml:space="preserve">
<style type="text/css">
	.st0{opacity:0.1;}
	.st1{clip-path:url(#SVGID_2_);}
	.st2{fill:#FFFFFF;}
	.st3{fill:#171725;}
	.st4{fill:none;}
	.st5{fill:#D1D3D4;}
	.st6{fill:#231F20;}
</style>
<g class="st0">
	<defs>
		<path id="SVGID_1_" class="st0" d="M374.8,231.7c-16.2,50.4-49.6,75.2-100,74.3s-92.5-9.3-126.2-25.1s-59.2-40.5-76.5-74.3
			S46,130.5,45.9,79.3s25.4-76.8,76.5-77s92.1,10.1,122.8,30.8s64,46.3,100,77S391.1,181.3,374.8,231.7z"/>
	</defs>
	<use xlink:href="#SVGID_1_"  style="overflow:visible;fill:#FFFFFF;"/>
	<clipPath id="SVGID_2_">
		<use xlink:href="#SVGID_1_"  style="overflow:visible;"/>
	</clipPath>
	<g class="st1">
		<path class="st2" d="M374.8,231.7c-16.2,50.4-49.6,75.2-100,74.3s-92.5-9.3-126.2-25.1s-59.2-40.5-76.5-74.3S46,130.5,45.9,79.3
			s25.4-76.8,76.5-77s92.1,10.1,122.8,30.8s64,46.3,100,77S391.1,181.3,374.8,231.7z"/>
	</g>
</g>
<g id="_332_online_shopping_flatline">
	<path class="st3" d="M312.9,261.2c0,2.4-20.3,4.4-50,4.4s-118-1.6-118-4c0-2.4,84.6-4.7,114.3-4.7
		C288.8,256.9,312.9,258.8,312.9,261.2z"/>
	<path class="st3" d="M144.8,261.6h105.7c3.7,0,6.7-2.9,6.7-6.6c0-0.2,0-0.3,0-0.5L246.6,52.9c-0.2-4-3.5-7.1-7.5-7.1H133.5
		c-3.7,0-6.7,2.9-6.7,6.6c0,0.2,0,0.3,0,0.5l10.6,201.6C137.6,258.5,140.9,261.6,144.8,261.6z"/>
	<path class="st3" d="M250.5,262H144.8c-4.2,0-7.7-3.3-7.9-7.5L126.3,53c-0.2-3.9,2.7-7.3,6.6-7.5c0.2,0,0.3,0,0.5,0h105.7
		c4.2,0,7.7,3.3,7.9,7.5l10.6,201.6c0.3,3.9-2.7,7.3-6.6,7.5C250.9,262.1,250.7,262.1,250.5,262L250.5,262z M133.5,46.3
		c-3.4,0-6.3,2.7-6.3,6.2c0,0.2,0,0.3,0,0.5l10.6,201.6c0.2,3.7,3.3,6.6,7,6.7h105.7c1.7,0,3.4-0.7,4.6-1.9c1.2-1.3,1.8-3,1.7-4.7
		L246.2,53c-0.2-3.7-3.3-6.6-7-6.7H133.5z"/>
	<path class="st2" d="M152.6,261.2h105.7c3.7,0,6.7-2.9,6.7-6.6c0-0.2,0-0.3,0-0.5L254.4,52.6c-0.2-4-3.5-7.1-7.5-7.1H141.3
		c-3.7,0-6.7,2.9-6.7,6.6c0,0.2,0,0.3,0,0.5l10.6,201.6C145.4,258.1,148.7,261.2,152.6,261.2z"/>
	<path class="st3" d="M258.3,261.7H152.6c-4.2-0.1-7.7-3.4-8-7.6L134.1,52.6c-0.3-4,2.7-7.4,6.7-7.6c0.2,0,0.4,0,0.5,0h105.7
		c4.2,0.1,7.7,3.3,8,7.5l10.6,201.6c0.3,4-2.7,7.4-6.7,7.6C258.7,261.7,258.5,261.7,258.3,261.7L258.3,261.7z M141.3,46
		c-3.4,0-6.2,2.7-6.2,6.1c0,0.1,0,0.3,0,0.4l10.6,201.6c0.3,3.7,3.3,6.6,7,6.6h105.7c3.4,0,6.2-2.7,6.2-6.1c0-0.2,0-0.3,0-0.5
		L253.9,52.6c-0.3-3.7-3.3-6.6-7-6.6H141.3z"/>
	<path class="st3" d="M250.3,248.6h-90.9c-3.4,0-6.2-2.7-6.4-6.1l-9.3-177.4c-0.2-3.2,2.2-6,5.4-6.2c0.1,0,0.3,0,0.4,0h90.9
		c3.4,0,6.2,2.7,6.4,6.1l9.3,177.4c0.2,3.2-2.2,5.9-5.4,6.2C250.6,248.6,250.4,248.6,250.3,248.6z M149.5,59.9
		c-1.3,0-2.6,0.5-3.5,1.5c-0.9,1-1.4,2.3-1.3,3.6l9.3,177.4c0.2,2.9,2.5,5.1,5.4,5.2h90.9c2.7,0,4.8-2.1,4.8-4.8c0-0.1,0-0.2,0-0.3
		l-9.3-177.4c-0.2-2.9-2.6-5.1-5.4-5.2L149.5,59.9z"/>
	<path class="st3" d="M212,53.5h-19.9c-0.3,0-0.5-0.2-0.5-0.5s0.2-0.5,0.5-0.5H212c0.3,0,0.5,0.2,0.5,0.5S212.3,53.5,212,53.5z"/>
	<path class="st3" d="M189.2,53.5h-3.5c-0.3,0-0.5-0.2-0.5-0.5s0.2-0.5,0.5-0.5h3.5c0.3,0,0.5,0.2,0.5,0.5S189.5,53.5,189.2,53.5z"
		/>
	<path class="st2" d="M132.4,94c-0.3,0-0.5-0.2-0.5-0.5l-1.1-20.8c0-0.3,0.2-0.5,0.5-0.5c0.3,0,0.5,0.2,0.5,0.5c0,0,0,0,0,0
		l1.1,20.8C133,93.7,132.8,94,132.4,94C132.5,94,132.5,94,132.4,94L132.4,94z"/>
	<polygon class="st2" points="172.8,80.6 161.6,80.6 143.3,58.7 154.5,58.7 	"/>
	<path class="st3" d="M172.8,81h-11.2c-0.1,0-0.3-0.1-0.4-0.2L143,59c-0.1-0.1-0.1-0.3-0.1-0.5c0.1-0.2,0.2-0.3,0.4-0.3h11.2
		c0.1,0,0.3,0.1,0.4,0.2l18.3,21.9c0.1,0.1,0.1,0.3,0.1,0.5C173.1,80.9,173,81,172.8,81z M161.8,80.1h10l-17.5-20.9h-10L161.8,80.1z
		"/>
	<path class="st2" d="M172.8,80.6h-11.2l0.4,5.6c0.2,2.8,2.5,5,5.4,5.1h1.2c2.6,0,4.7-2,4.7-4.6c0-0.2,0-0.3,0-0.5L172.8,80.6z"/>
	<path class="st3" d="M168.5,91.7h-1.1c-3.1,0-5.6-2.4-5.8-5.5l-0.4-5.6c0-0.3,0.2-0.5,0.4-0.5c0,0,0,0,0,0h11.2
		c0.2,0,0.4,0.2,0.5,0.4l0.4,5.6c0.2,2.8-1.9,5.3-4.7,5.5C168.8,91.7,168.6,91.7,168.5,91.7L168.5,91.7z M162.1,81l0.3,5.1
		c0.2,2.6,2.3,4.6,4.9,4.6h1.1c2.3,0,4.2-1.8,4.3-4.1c0-0.1,0-0.3,0-0.4l-0.3-5.1L162.1,81z"/>
	<polygon class="st3" points="184,80.6 172.8,80.6 154.5,58.7 165.7,58.7 	"/>
	<path class="st3" d="M184,81h-11.2c-0.1,0-0.3-0.1-0.4-0.2L154.2,59c-0.1-0.1-0.1-0.3-0.1-0.5c0.1-0.2,0.2-0.3,0.4-0.3h11.2
		c0.1,0,0.3,0.1,0.4,0.2l18.3,21.9c0.2,0.2,0.2,0.5,0,0.6C184.2,81,184.1,81.1,184,81L184,81z M173,80.1h10l-17.5-20.9h-10L173,80.1
		z"/>
	<path class="st3" d="M184,80.6h-11.2l0.4,5.6c0.2,2.8,2.5,5,5.4,5.1h1.1c2.6,0,4.7-2,4.7-4.6c0-0.2,0-0.3,0-0.5L184,80.6z"/>
	<path class="st3" d="M179.7,91.7h-1.1c-3.1,0-5.6-2.4-5.8-5.5l-0.4-5.6c0-0.1,0-0.3,0.1-0.4c0.1-0.1,0.2-0.1,0.3-0.1H184
		c0.2,0,0.4,0.2,0.5,0.4l0.4,5.6c0.2,2.8-1.9,5.3-4.7,5.5C180,91.7,179.8,91.7,179.7,91.7z M173.3,81l0.3,5.1
		c0.2,2.6,2.3,4.6,4.9,4.6h1.1c2.3,0,4.2-1.8,4.3-4.1c0-0.1,0-0.3,0-0.4l-0.3-5.1L173.3,81z"/>
	<polygon class="st2" points="195.2,80.6 184,80.6 165.7,58.7 177,58.7 	"/>
	<path class="st3" d="M195.2,81H184c-0.1,0-0.2,0-0.3-0.1l-18.3-21.9c-0.1-0.1-0.1-0.3-0.1-0.5c0.1-0.2,0.2-0.3,0.4-0.3H177
		c0.1,0,0.3,0.1,0.4,0.2l18.3,21.9c0.1,0.1,0.1,0.3,0.1,0.5C195.6,81,195.4,81.1,195.2,81z M184.2,80.1h10l-17.5-20.9h-10
		L184.2,80.1z"/>
	<path class="st2" d="M195.2,80.6H184l0.4,5.6c0.2,2.8,2.5,5,5.4,5.1h1.1c2.6,0,4.7-2,4.7-4.6c0-0.2,0-0.3,0-0.5L195.2,80.6z"/>
	<path class="st3" d="M190.9,91.7h-1.1c-3.1,0-5.6-2.4-5.8-5.5l-0.4-5.6c0-0.3,0.2-0.5,0.4-0.5c0,0,0,0,0,0h11.2
		c0.2,0,0.4,0.2,0.5,0.4l0.4,5.6c0.2,2.8-1.9,5.3-4.7,5.5C191.3,91.7,191.1,91.7,190.9,91.7L190.9,91.7z M184.5,81l0.3,5.1
		c0.2,2.6,2.4,4.6,5,4.6h1.1c2.3,0,4.2-1.8,4.3-4.2c0-0.1,0-0.3,0-0.4l-0.3-5.1L184.5,81z"/>
	<polygon class="st3" points="206.5,80.6 195.2,80.6 177,58.7 188.2,58.7 	"/>
	<path class="st3" d="M206.5,81h-11.2c-0.1,0-0.3,0-0.4-0.1L176.6,59c-0.1-0.1-0.1-0.3-0.1-0.5c0.1-0.2,0.2-0.3,0.4-0.3h11.2
		c0.1,0,0.3,0.1,0.4,0.2l18.3,21.9c0.2,0.2,0.2,0.5,0,0.6C206.7,81,206.6,81.1,206.5,81L206.5,81z M195.5,80.1h10L188,59.2h-10
		L195.5,80.1z"/>
	<path class="st3" d="M206.5,80.6h-11.2l0.4,5.6c0.2,2.8,2.5,5,5.4,5.1h1.1c2.6,0,4.7-2,4.7-4.6c0-0.2,0-0.3,0-0.5L206.5,80.6z"/>
	<path class="st3" d="M202.1,91.7H201c-3.1,0-5.6-2.4-5.8-5.5l-0.4-5.6c0-0.1,0-0.3,0.1-0.4c0.1-0.1,0.2-0.1,0.3-0.1h11.2
		c0.2,0,0.4,0.2,0.5,0.4l0.4,5.6c0.3,2.8-1.8,5.3-4.6,5.5C202.4,91.7,202.2,91.7,202.1,91.7L202.1,91.7z M195.7,81l0.3,5.1
		c0.2,2.6,2.3,4.6,4.9,4.6h1.1c2.3,0,4.2-1.8,4.3-4.1c0-0.1,0-0.3,0-0.4L206,81H195.7z"/>
	<polygon class="st2" points="217.7,80.6 206.5,80.6 188.2,58.7 199.4,58.7 	"/>
	<path class="st3" d="M217.7,81h-11.2c-0.1,0-0.3-0.1-0.4-0.2L187.8,59c-0.1-0.1-0.1-0.3-0.1-0.5c0.1-0.2,0.2-0.3,0.4-0.3h11.2
		c0.1,0,0.3,0.1,0.4,0.2L218,80.3c0.1,0.1,0.1,0.3,0.1,0.5C218,80.9,217.8,81,217.7,81z M206.7,80.1h10l-17.5-20.9h-10L206.7,80.1z"
		/>
	<path class="st2" d="M217.7,80.6h-11.2l0.4,5.6c0.2,2.8,2.5,5,5.4,5.1h1.1c2.6,0,4.7-2,4.7-4.6c0-0.2,0-0.3,0-0.5L217.7,80.6z"/>
	<path class="st3" d="M213.4,91.7h-1.1c-3.1,0-5.6-2.4-5.8-5.5l-0.3-5.6c0-0.1,0-0.3,0.1-0.4c0.1-0.1,0.2-0.1,0.3-0.1h11.2
		c0.2,0,0.4,0.2,0.5,0.4l0.4,5.6c0.2,2.8-1.9,5.3-4.7,5.5C213.7,91.7,213.5,91.7,213.4,91.7L213.4,91.7z M207,81l0.3,5.1
		c0.2,2.6,2.3,4.6,4.9,4.6h1.1c2.3,0,4.2-1.8,4.3-4.2c0-0.1,0-0.3,0-0.4l-0.4-5.1H207z"/>
	<polygon class="st3" points="228.9,80.6 217.7,80.6 199.4,58.7 210.6,58.7 	"/>
	<path class="st3" d="M228.9,81h-11.2c-0.1,0-0.3-0.1-0.4-0.2L199.1,59c-0.1-0.1-0.1-0.3-0.1-0.5c0.1-0.2,0.2-0.3,0.4-0.3h11.2
		c0.1,0,0.3,0.1,0.4,0.2l18.3,21.9c0.2,0.2,0.2,0.5,0,0.6C229.1,81,229,81.1,228.9,81L228.9,81z M217.9,80.1h10l-17.5-20.9h-10
		L217.9,80.1z"/>
	<path class="st3" d="M228.9,80.6h-11.2l0.4,5.6c0.2,2.8,2.5,5,5.4,5.1h1.1c2.6,0,4.7-2,4.7-4.6c0-0.2,0-0.3,0-0.5L228.9,80.6z"/>
	<path class="st3" d="M224.6,91.7h-1.1c-3.1,0-5.6-2.4-5.8-5.5l-0.4-5.6c0-0.1,0-0.3,0.1-0.4c0.1-0.1,0.2-0.1,0.3-0.1h11.2
		c0.2,0,0.4,0.2,0.5,0.4l0.4,5.6c0.1,1.4-0.4,2.9-1.4,3.9C227.4,91.1,226,91.7,224.6,91.7z M218.2,81l0.3,5.1
		c0.2,2.6,2.3,4.6,4.9,4.6h1.1c2.3,0,4.2-1.8,4.3-4.1c0-0.1,0-0.3,0-0.4l-0.3-5.1L218.2,81z"/>
	<polygon class="st2" points="240.1,80.6 228.9,80.6 210.6,58.7 221.8,58.7 	"/>
	<path class="st3" d="M240.1,81h-11.2c-0.1,0-0.3-0.1-0.4-0.2L210.3,59c-0.1-0.1-0.1-0.3-0.1-0.5c0.1-0.2,0.2-0.3,0.4-0.3h11.2
		c0.1,0,0.3,0.1,0.4,0.2l18.3,21.9c0.1,0.1,0.1,0.3,0.1,0.5C240.5,80.9,240.3,81,240.1,81z M229.1,80.1h10l-17.5-20.9h-10
		L229.1,80.1z"/>
	<path class="st2" d="M240.1,80.6h-11.2l0.4,5.6c0.2,2.8,2.5,5,5.4,5.1h1.1c2.6,0,4.7-2,4.7-4.6c0-0.2,0-0.3,0-0.5L240.1,80.6z"/>
	<path class="st3" d="M235.8,91.7h-1.1c-3.1,0-5.6-2.4-5.8-5.5l-0.4-5.6c0-0.1,0-0.3,0.1-0.4c0.1-0.1,0.2-0.1,0.3-0.1h11.2
		c0.2,0,0.4,0.2,0.5,0.4l0.4,5.6c0.3,2.8-1.8,5.3-4.6,5.5C236.2,91.7,236,91.7,235.8,91.7L235.8,91.7z M229.4,81l0.3,5.1
		c0.2,2.6,2.3,4.6,4.9,4.6h1.1c2.3,0,4.2-1.8,4.3-4.1c0-0.1,0-0.3,0-0.4l-0.3-5.1L229.4,81z"/>
	<polygon class="st3" points="251.3,80.6 240.1,80.6 221.8,58.7 233,58.7 	"/>
	<path class="st3" d="M251.3,81h-11.2c-0.1,0-0.3-0.1-0.4-0.2L221.6,59c-0.1-0.1-0.1-0.3-0.1-0.5c0.1-0.2,0.2-0.3,0.4-0.3h11.2
		c0.1,0,0.3,0.1,0.4,0.2l18.3,21.9c0.2,0.2,0.1,0.5-0.1,0.7C251.6,81,251.4,81,251.3,81z M240.3,80.1h10l-17.5-20.9h-10L240.3,80.1z
		"/>
	<path class="st3" d="M251.3,80.6h-11.2l0.4,5.6c0.2,2.8,2.5,5,5.4,5.1h1.1c2.6,0,4.7-2,4.7-4.6c0-0.2,0-0.3,0-0.5L251.3,80.6z"/>
	<path class="st3" d="M247,91.7h-1.1c-3.1,0-5.6-2.4-5.8-5.5l-0.4-5.6c0-0.1,0-0.3,0.1-0.4c0.1-0.1,0.2-0.1,0.3-0.1h11.2
		c0.2,0,0.4,0.2,0.5,0.4l0.4,5.6c0.2,2.8-1.9,5.3-4.7,5.5C247.3,91.7,247.1,91.7,247,91.7L247,91.7z M240.6,81l0.3,5.1
		c0.2,2.6,2.3,4.6,4.9,4.6h1.1c2.3,0,4.2-1.8,4.2-4.2c0-0.1,0-0.3,0-0.4l-0.3-5.1L240.6,81z"/>
	<polygon class="st2" points="262.6,80.6 251.3,80.6 233,58.7 244.3,58.7 	"/>
	<path class="st3" d="M262.6,81h-11.2c-0.1,0-0.3-0.1-0.4-0.2L232.7,59c-0.1-0.1-0.1-0.3-0.1-0.5c0.1-0.2,0.2-0.3,0.4-0.3h11.2
		c0.1,0,0.3,0.1,0.4,0.2l18.3,21.9c0.1,0.1,0.1,0.3,0.1,0.5C262.9,80.9,262.7,81,262.6,81z M251.6,80.1h10L244,59.2h-10L251.6,80.1z
		"/>
	<path class="st2" d="M262.6,80.6h-11.2l0.4,5.6c0.2,2.8,2.5,5,5.4,5.1h1.1c2.6,0,4.7-2,4.7-4.6c0-0.2,0-0.3,0-0.5L262.6,80.6z"/>
	<path class="st3" d="M258.2,91.7h-1.1c-3.1-0.1-5.6-2.4-5.8-5.5l-0.4-5.6c0-0.1,0-0.3,0.1-0.4c0.1-0.1,0.2-0.1,0.3-0.1h11.2
		c0.2,0,0.4,0.2,0.5,0.4l0.4,5.6c0.3,2.8-1.8,5.3-4.6,5.5C258.6,91.7,258.4,91.7,258.2,91.7L258.2,91.7z M251.8,81l0.3,5.1
		c0.2,2.6,2.3,4.6,4.9,4.6h1.1c2.3,0,4.2-1.8,4.3-4.1c0-0.1,0-0.3,0-0.4l-0.3-5.1L251.8,81z"/>
	<polygon class="st3" points="143.3,58.7 144.7,80.6 161.6,80.6 	"/>
	<path class="st3" d="M161.6,81h-16.8c-0.2,0-0.4-0.2-0.4-0.4l-1.4-21.9c0-0.2,0.1-0.4,0.3-0.4c0.2-0.1,0.4,0,0.5,0.1l18.3,21.9
		c0.1,0.1,0.1,0.3,0.1,0.5C161.9,80.9,161.8,81,161.6,81z M145.1,80.1h15.5L143.8,60L145.1,80.1z"/>
	<path class="st3" d="M318.3,133.6c-0.1,0-0.2,0-0.3-0.1c-0.2-0.1-0.3-0.3-0.3-0.5c-0.1-1.3-2.9-11.1-5.5-10.9
		c-0.3,0-0.6,0.2-0.8,0.4c-1.5,1.7-1.2,7.8-1,10c0,0.3-0.2,0.5-0.5,0.6c-0.3,0-0.5-0.2-0.6-0.5c0,0,0,0,0,0c0-0.3-0.8-8.3,1.3-10.7
		c0.4-0.5,0.9-0.7,1.5-0.8c1.1-0.1,2.1,0.8,3.2,2.4c1.8,2.9,3.7,9.2,3.3,9.8C318.7,133.5,318.5,133.6,318.3,133.6z"/>
	<line class="st4" x1="310.9" y1="135.7" x2="314.2" y2="164.3"/>
	<path class="st5" d="M314.2,164.8c-0.3,0-0.5-0.2-0.5-0.5l-3.3-28.6c0-0.3,0.2-0.5,0.4-0.6c0.3,0,0.5,0.2,0.6,0.4l3.2,28.6
		C314.7,164.5,314.5,164.8,314.2,164.8C314.2,164.8,314.2,164.8,314.2,164.8L314.2,164.8z"/>
	<path class="st2" d="M298.9,167.8c-0.2-0.4,1.5-33.8,1.5-33.8l19.8,2.4l4.4,30.8L298.9,167.8z"/>
	<path class="st3" d="M298.9,168.3c-0.2,0-0.4-0.1-0.5-0.3c-0.1-0.2-0.2-0.5,1.5-34c0-0.1,0.1-0.3,0.2-0.4c0.1-0.1,0.2-0.1,0.4-0.1
		l19.8,2.4c0.2,0,0.4,0.2,0.4,0.4l4.4,30.8c0,0.1,0,0.3-0.1,0.4c-0.1,0.1-0.2,0.2-0.4,0.2L298.9,168.3L298.9,168.3z M301,134.6
		c-0.6,12.2-1.5,29.6-1.5,32.7l24.7-0.5l-4.2-29.9L301,134.6z"/>
	<polygon class="st3" points="300.5,134 303.3,130.5 325.3,130.9 320.3,136.4 	"/>
	<path class="st3" d="M320.3,136.9L320.3,136.9l-19.9-2.4c-0.2,0-0.3-0.1-0.4-0.3c-0.1-0.2,0-0.4,0.1-0.5l2.8-3.6
		c0.1-0.1,0.2-0.2,0.4-0.2l22,0.5c0.2,0,0.4,0.1,0.5,0.3c0.1,0.2,0,0.4-0.1,0.5l-5.1,5.5C320.6,136.9,320.4,136.9,320.3,136.9z
		 M301.5,133.6l18.7,2.2l4.1-4.5l-20.7-0.4L301.5,133.6z"/>
	<polygon class="st2" points="325.3,130.9 330.5,164 324.7,167.2 320.3,136.4 	"/>
	<path class="st5" d="M324.7,167.7c-0.1,0-0.2,0-0.2-0.1c-0.2-0.1-0.3-0.2-0.3-0.4l-4.4-30.8c0-0.2,0-0.3,0.1-0.4l5-5.5
		c0.1-0.1,0.3-0.2,0.5-0.2c0.2,0.1,0.3,0.2,0.4,0.4L331,164c0,0.2-0.1,0.4-0.3,0.5l-5.8,3.2C324.8,167.7,324.8,167.7,324.7,167.7z
		 M320.8,136.6l4.2,29.8l4.8-2.7l-4.9-31.7L320.8,136.6z"/>
	<path class="st3" d="M314.7,139.3L314.7,139.3c-0.3,0-0.5-0.3-0.5-0.5c0,0,0,0,0,0c0.3-6-0.2-15.6-3.1-15.9c-0.5,0-1,0.1-1.3,0.5
		c-2.5,2.2-3.6,10.7-3.8,13.8c0,0.3-0.3,0.5-0.5,0.5c-0.3,0-0.5-0.3-0.5-0.5c0,0,0,0,0,0c0-0.5,0.8-11.7,4.2-14.5
		c0.6-0.5,1.3-0.8,2-0.7c4.8,0.4,4.1,15.2,4.1,16.9C315.2,139.1,315,139.3,314.7,139.3z"/>
	<path class="st3" d="M312.6,133.6c-0.2,0-0.4-0.1-0.5-0.3c-0.1-0.3-3.6-8.6-2.1-11.9c0.2-0.6,0.7-1.1,1.3-1.3
		c1.1-0.4,2.5,0.1,4.1,1.6c2.9,2.6,6.9,8.7,6.8,9.4c0,0.3-0.2,0.5-0.5,0.5s-0.5-0.2-0.5-0.5c-0.4-1-6.6-11.1-9.5-10
		c-0.3,0.1-0.6,0.4-0.7,0.7c-1,2.4,1.2,8.8,2.1,11.1c0.1,0.3,0,0.6-0.3,0.7c0,0,0,0,0,0C312.7,133.6,312.7,133.6,312.6,133.6z"/>
	<line class="st4" x1="314.6" y1="136.2" x2="327.4" y2="165.9"/>
	<path class="st5" d="M327.4,166.4c-0.2,0-0.4-0.1-0.5-0.3l-12.8-29.7c-0.1-0.3,0-0.6,0.3-0.7c0.3-0.1,0.6,0,0.7,0.3l12.8,29.7
		c0.1,0.3,0,0.6-0.3,0.7c0,0,0,0,0,0C327.5,166.4,327.5,166.4,327.4,166.4z"/>
	<path class="st2" d="M312.1,174.6c-0.3-0.4-9.3-36.8-9.3-36.8l22.1-3.9l14.7,31.7L312.1,174.6z"/>
	<path class="st3" d="M312.1,175.1c-0.1,0-0.3-0.1-0.4-0.2c-0.1-0.1-0.4-0.5-9.4-37c0-0.1,0-0.3,0.1-0.4c0.1-0.1,0.2-0.2,0.3-0.2
		l22.1-3.9c0.2,0,0.4,0.1,0.5,0.3l14.7,31.7c0.1,0.1,0.1,0.3,0,0.4c-0.1,0.1-0.2,0.2-0.3,0.3l-27.5,9
		C312.2,175.1,312.1,175.1,312.1,175.1z M303.4,138.2c3.3,13.3,8.1,32.6,9,35.8l26.5-8.6l-14.3-30.8L303.4,138.2z"/>
	<polygon class="st3" points="302.8,137.7 304.7,133 328.5,126.3 324.9,133.9 	"/>
	<path class="st3" d="M302.8,138.3c-0.2,0-0.3-0.1-0.4-0.2c-0.1-0.1-0.1-0.3-0.1-0.5l1.9-4.8c0.1-0.2,0.2-0.3,0.3-0.3l23.8-6.6
		c0.2-0.1,0.4,0,0.5,0.2c0.1,0.2,0.2,0.4,0.1,0.5l-3.6,7.5c-0.1,0.1-0.2,0.3-0.4,0.3L302.8,138.3L302.8,138.3z M305.1,133.4
		l-1.5,3.7l21-3.7l3-6.3L305.1,133.4z"/>
	<polygon class="st2" points="328.5,126.3 344.8,160.3 339.6,165.6 324.9,133.9 	"/>
	<path class="st3" d="M339.6,166.1L339.6,166.1c-0.2,0-0.4-0.1-0.5-0.3l-14.7-31.7c-0.1-0.1-0.1-0.3,0-0.4l3.6-7.5
		c0.1-0.3,0.5-0.3,0.7-0.2c0.1,0,0.1,0.1,0.2,0.2l16.2,33.9c0.1,0.2,0.1,0.4-0.1,0.6l-5.2,5.3C339.9,166,339.7,166.1,339.6,166.1z
		 M325.5,133.9l14.3,30.8l4.4-4.5l-15.6-32.7L325.5,133.9z"/>
	<path class="st3" d="M309.1,136.2c-0.2,0-0.4-0.1-0.5-0.3c-0.1-0.4-2.8-10.5-0.2-13.9c0.4-0.6,1.1-1,1.9-1.1
		c5.1-0.9,9.1,12.3,9.5,13.8c0.1,0.2-0.1,0.4-0.3,0.5c0,0,0,0,0,0c-0.3,0.1-0.5-0.1-0.6-0.3c-1.6-5.4-5.2-13.7-8.4-13.2
		c-0.5,0.1-1,0.4-1.2,0.8c-2,2.6-0.4,10.4,0.4,13.2c0.1,0.2-0.1,0.4-0.3,0.5c0,0,0,0,0,0L309.1,136.2z"/>
	<path class="st2" d="M264,139c-0.7-2.7-0.2-5.4,3.2-5.9c5.1-0.8,10.6,2.9,15.3,4.4c1.6,0.5,10.4,2.7,10.4,2.7s1.4-2.5,1.8-3.4
		c0.9-2.2,1.7-4.3,2.6-6.5c1.7-4.5,3-8.9,5.8-12.9c0.6-0.8,1.2-1.6,1.9-2.4c1.8-2.1,4-3.7,6.6-4.6c0.2-0.1,0.3-0.1,0.5,0
		c0.3,0.2,0.1,0.7-0.2,0.9l-3.4,2.9c0.9-0.9,2-1.6,3.1-2.2c0.5-0.3,2.1-1.3,2.7-0.8c0.8,0.8-1,1.5-1.4,1.8c-0.9,0.7-1.8,1.6-2.8,2.3
		c1.3-0.9,2.6-1.6,4.1-2.2c0.7-0.3,1.7-0.3,1.9,0.4c0.1,0.5-0.3,0.9-0.7,1.2l-2.9,2.4c0.8-0.7,2.3,0.6,2.6,1.3
		c0.4,1.1,0.2,2.4-0.5,3.4c-0.2,0.2-0.4,0.4-0.6,0.5c-0.3,0.1-0.6,0.1-0.8-0.1c-0.9-0.7,0.1-2.4-1.4-2.8c-0.6-0.1-1.3,0.3-1.5,0.9
		c-0.2,0.6,0,1.3,0.4,1.7c0.3,0.4,0.8,0.7,0.8,1.2c0,0.3-0.2,0.6-0.4,0.7c-0.7,0.5-1.7,0.3-2.2-0.5c0,0,0,0,0-0.1
		c-0.2-0.4-0.4-0.9-0.8-0.8c-0.1,0-0.3,0.1-0.3,0.3c-0.5,0.6-2.3,10.8-2.7,14.2c-0.6,4.6-1.5,14.5-7.3,15.8c-0.2,0-0.4,0.1-0.6,0.1
		c-5.5,0.5-11.2-0.9-16.3-2.7c-4.3-1.5-9.2-2.6-12.9-5.4C265.9,143.3,264.6,141.3,264,139z"/>
	<path class="st3" d="M294.5,153.5c-5,0-9.9-1.4-14.1-2.8c-0.8-0.3-1.7-0.6-2.5-0.8c-3.7-1.2-7.5-2.4-10.5-4.6
		c-1.9-1.6-3.2-3.7-3.8-6.1l0,0c-0.5-1.5-0.4-3.2,0.4-4.6c0.7-1.1,1.9-1.7,3.2-1.9c3.7-0.6,7.5,1.1,11.2,2.7
		c1.5,0.7,2.9,1.3,4.3,1.7c1.3,0.4,8.4,2.2,10,2.6c0.4-0.7,1.3-2.3,1.6-3c0.9-2.2,1.8-4.4,2.6-6.5c0.3-0.8,0.6-1.6,0.9-2.3
		c1.4-3.8,2.6-7.3,5-10.6c0.6-0.9,1.3-1.7,1.9-2.4c1.8-2.2,4.2-3.8,6.8-4.8c0.3-0.1,0.6-0.1,0.9,0c0.2,0.1,0.3,0.3,0.4,0.6
		c0,0.1,0,0.3-0.1,0.4c0.7-0.3,1.5-0.5,2,0c0.2,0.2,0.4,0.5,0.3,0.9c-0.1,0.3-0.2,0.5-0.4,0.7c0.4-0.1,0.9-0.1,1.3,0.1
		c0.3,0.1,0.5,0.4,0.6,0.8c0.2,0.8-0.5,1.4-0.8,1.6l-1.9,1.6c0.7,0.3,1.3,0.9,1.7,1.6c0.5,1.3,0.3,2.8-0.6,3.9
		c-0.2,0.3-0.5,0.5-0.8,0.7c-0.4,0.2-0.9,0.1-1.3-0.2c-0.4-0.4-0.7-1-0.6-1.6c-0.1-0.7-0.1-1-0.6-1.1c-0.4-0.1-0.8,0.2-0.9,0.6
		c-0.1,0.4,0,0.9,0.3,1.3l0.2,0.2c0.4,0.3,0.7,0.8,0.7,1.3c0,0.4-0.3,0.9-0.6,1.1c-0.9,0.6-2.2,0.4-2.8-0.5c0-0.1-0.1-0.1-0.1-0.2
		l-0.1-0.2c-0.1-0.2-0.2-0.3-0.3-0.4c0,0,0,0.1-0.1,0.1c-0.4,0.8-2.2,10.4-2.6,13.9l-0.1,0.7c-0.6,5-1.7,14.2-7.6,15.5
		c-0.2,0-0.4,0.1-0.6,0.1C296.1,153.4,295.4,153.5,294.5,153.5z M268.7,133.4c-0.5,0-1,0-1.4,0.1c-1,0.1-1.9,0.6-2.5,1.5
		c-0.6,1.2-0.7,2.6-0.3,3.9l0,0c0.6,2.2,1.8,4.1,3.5,5.6c2.9,2.2,6.6,3.3,10.2,4.5c0.9,0.3,1.7,0.5,2.6,0.8
		c4.8,1.6,10.5,3.2,16.1,2.7c0.2,0,0.3,0,0.5-0.1c5.2-1.2,6.3-10,6.9-14.7l0.1-0.7c0.3-2.5,2.1-13.6,2.8-14.4
		c0.1-0.2,0.4-0.3,0.6-0.4c0.7-0.2,1.1,0.5,1.3,0.9l0.1,0.1c0.1,0.3,0.4,0.5,0.7,0.5c0.3,0.1,0.6,0.1,0.8-0.1
		c0.1-0.1,0.2-0.2,0.2-0.4c0-0.2-0.2-0.4-0.4-0.6c-0.1-0.1-0.2-0.2-0.3-0.3c-0.6-0.6-0.8-1.4-0.5-2.2c0.3-0.8,1.2-1.3,2-1.2
		c1.1,0.3,1.2,1.3,1.3,1.9c0,0.5,0.1,0.8,0.3,1c0.1,0.1,0.2,0.1,0.3,0c0.2-0.1,0.3-0.2,0.5-0.4c0.6-0.8,0.8-1.9,0.5-2.9
		c-0.3-0.6-0.8-1-1.4-1.2c-0.3-0.1-0.4,0-0.4,0l0,0c-0.2,0.2-0.5,0.1-0.6-0.1c0,0,0,0,0,0c-0.2-0.2-0.1-0.5,0.1-0.6l0,0l2.9-2.4
		c0.4-0.3,0.5-0.6,0.5-0.7c0-0.1,0-0.1-0.1-0.1c-0.4-0.1-0.8-0.1-1.1,0.1c-1.4,0.5-2.7,1.3-3.9,2.1l0,0l0,0
		c-0.2,0.1-0.5,0.1-0.6-0.1c0,0,0,0,0,0c-0.1-0.2-0.1-0.5,0.1-0.6c0,0,0,0,0,0l0,0c0.6-0.4,1.1-0.9,1.7-1.3c0.4-0.3,0.7-0.6,1.1-0.9
		c0.2-0.1,0.3-0.2,0.5-0.3c0.2-0.1,0.9-0.5,1-0.7l0,0c0,0,0,0-0.1-0.1c-0.1-0.1-0.3-0.2-1.8,0.7l-0.3,0.2c-0.8,0.4-1.6,0.9-2.3,1.5
		l-0.8,0.7c-0.2,0.2-0.5,0.2-0.6,0c-0.2-0.2-0.2-0.5,0-0.6c0.3-0.2,0.5-0.5,0.8-0.7l2.6-2.3l0.1-0.1c-2.4,0.9-4.6,2.5-6.3,4.5
		c-0.7,0.7-1.3,1.5-1.8,2.3c-2.3,3.2-3.6,6.7-4.9,10.4c-0.3,0.8-0.6,1.6-0.9,2.4c-0.8,2.1-1.6,4.3-2.6,6.6c-0.4,1-1.7,3.4-1.8,3.5
		c-0.1,0.2-0.3,0.3-0.5,0.2c-0.4-0.1-8.8-2.1-10.5-2.7c-1.4-0.5-2.8-1.1-4.3-1.8C274.9,134.8,271.7,133.4,268.7,133.4z"/>
	<path class="st2" d="M225.7,131l-17.1,4.4l-6.2-23.1c0,0-1.2-5.5-2.4-6.4c-2.5-1.8-9.2-0.6-10.4,2.4c-0.2,0.4-0.2,0.9-0.2,1.3
		c0,1.3,0.5,2.5,1.4,3.4c1.1,1.1,3.9,1,4.1,2.3c0.1,0.6-0.7,1.7-0.7,2.4c0,0.9,0,1.7,0.2,2.6c0.4,3.7,0.9,7.4,1.5,11.1
		c0.5,3.6,1.3,7.3,2.2,10.8c0.5,1.9,1.1,5.1,2.8,6.3c0.2,0.2,0.5,0.3,0.8,0.4c4.9,0.7,26-5.1,26-5.1"/>
	<path class="st3" d="M202.6,149.3c-0.4,0-0.7,0-1.1-0.1c-0.4-0.1-0.7-0.2-1-0.5c-1.6-1.2-2.2-3.8-2.7-5.8c-0.1-0.3-0.1-0.6-0.2-0.8
		c-0.9-3.6-1.7-7.2-2.2-10.9c-0.5-3.4-1-7-1.5-11.1c0-0.2,0-0.4-0.1-0.6c-0.1-0.7-0.2-1.4-0.1-2c0.1-0.4,0.2-0.8,0.4-1.2
		c0.2-0.3,0.3-0.7,0.3-1.1c-0.1-0.4-0.9-0.7-1.7-0.9c-0.9-0.2-1.7-0.6-2.3-1.1c-1-1-1.5-2.3-1.5-3.7c0-0.5,0.1-1,0.3-1.5
		c0.5-1.3,2-2.4,4.1-3c2.6-0.8,5.5-0.6,7,0.5c1.5,1.1,2.4,5.7,2.6,6.7l6.1,22.6l16.6-4.3c0.2-0.1,0.5,0.1,0.6,0.3c0,0,0,0,0,0
		c0.1,0.2-0.1,0.5-0.3,0.6c0,0,0,0,0,0l-17.1,4.3c-0.2,0.1-0.5-0.1-0.6-0.3l-6.2-23c-0.5-2-1.5-5.6-2.3-6.1c-1.2-0.9-3.8-1-6.2-0.3
		c-1.8,0.5-3.1,1.4-3.5,2.5c-0.1,0.4-0.2,0.8-0.2,1.2c0,1.1,0.5,2.2,1.2,3c0.6,0.4,1.2,0.7,1.9,0.9c1,0.3,2.1,0.6,2.3,1.6
		c0,0.6-0.1,1.1-0.4,1.6c-0.1,0.3-0.2,0.6-0.3,0.9c0,0.6,0,1.2,0.1,1.8l0.1,0.6c0.5,4.1,1,7.7,1.5,11.1c0.5,3.6,1.3,7.2,2.2,10.8
		c0.1,0.3,0.1,0.5,0.2,0.8c0.5,1.8,1.1,4.3,2.4,5.3c0.2,0.1,0.3,0.2,0.5,0.3c4.7,0.7,25.6-5.1,25.8-5.1c0.2-0.1,0.5,0.1,0.6,0.3
		c0.1,0.2-0.1,0.5-0.3,0.6C226.9,144.4,208.9,149.3,202.6,149.3z"/>
	<path class="st2" d="M258.2,120.3l7.2-0.7c0,0-2.7-2.8-2.2-5.1s2-2.4-0.6-6.4c-1.5-2.3-3.3-4-3.9-6.7c-0.7-3.1-2.6-4.5-5.9-3.7
		c-1,0.3-2.1,0.5-3.1,0.7c-1,0-1.9-0.2-2.9-0.2c-2.8,0-5.3,1.5-6.6,3.9c-0.5,1-0.2,2.3-0.7,3c-0.5,0.8-1.8,1.1-2.4,1.6
		c-1.5,1-2.1,2.9-1.6,4.6c0.7,3.7,4.2,5.6,0.7,7.7s-3.6,4.7-3.6,4.7L258.2,120.3z"/>
	<path class="st3" d="M232.4,124.4c-0.1,0-0.2,0-0.3-0.1c-0.1-0.1-0.2-0.2-0.2-0.4c0-0.1,0.2-2.8,3.8-5.1c1.9-1.2,1.4-2,0.5-3.8
		c-0.6-1.1-1.1-2.2-1.4-3.4c-0.5-1.9,0.2-3.9,1.8-5.1c0.3-0.2,0.7-0.4,1-0.6c0.5-0.2,0.9-0.5,1.3-0.9c0.2-0.4,0.3-0.8,0.3-1.2
		c0-0.6,0.2-1.2,0.4-1.8c1.4-2.6,4.1-4.2,7-4.2c0.4,0,0.9,0.1,1.3,0.1c0.5,0.1,1.1,0.1,1.6,0.1c0.8-0.1,1.6-0.2,2.3-0.5l0.7-0.2
		c2.4-1,5.2,0.2,6.2,2.6c0.2,0.5,0.3,0.9,0.3,1.4c0.5,1.7,1.3,3.3,2.5,4.7c0.4,0.6,0.9,1.2,1.3,1.8c1.9,3,1.7,4,1.1,5.4
		c-0.2,0.4-0.3,0.9-0.4,1.3c-0.3,1.7,1.4,3.9,2.1,4.6c0.1,0.1,0.2,0.3,0.1,0.5c-0.1,0.2-0.2,0.3-0.4,0.3l-7.2,0.7L232.4,124.4z
		 M246.6,98.8c-2.5,0-4.9,1.5-6.1,3.7c-0.2,0.5-0.3,1-0.3,1.5c0,0.6-0.1,1.1-0.4,1.6c-0.5,0.5-1,0.9-1.7,1.2
		c-0.3,0.1-0.6,0.3-0.9,0.5c-1.3,0.9-1.9,2.6-1.5,4.2c0.3,1.1,0.7,2.2,1.3,3.2c0.9,1.7,1.8,3.4-0.8,5.1c-1.5,0.8-2.7,2.1-3.3,3.7
		l25.1-3.6l0,0l6.3-0.6c-0.8-1-2.1-3-1.7-4.8c0.1-0.5,0.3-1,0.5-1.5c0.5-1.1,0.7-1.8-1-4.5c-0.4-0.6-0.8-1.2-1.3-1.8
		c-1.3-1.5-2.2-3.2-2.7-5.1c-0.1-2.1-1.9-3.7-4.1-3.6c-0.5,0-0.9,0.1-1.3,0.3l-0.7,0.2c-0.8,0.3-1.7,0.4-2.5,0.5
		c-0.6,0-1.1,0-1.7-0.1c-0.4,0-0.8-0.1-1.2-0.1L246.6,98.8z"/>
	<path class="st3" d="M180.1,127.1c-0.1,0-0.2,0-0.3-0.1c-0.2-0.1-0.3-0.5-0.2-0.7c2.6-4.2,11-17.9,13.3-18.2c0.2,0,0.5,0,0.7,0.2
		c1.6,1.5-2.8,11.3-4.7,15.4c-0.1,0.3-0.4,0.4-0.7,0.2c-0.3-0.1-0.4-0.4-0.2-0.7l0,0c2.8-6,5.4-12.9,5-14.2
		c-1.5,0.7-7.4,9.4-12.4,17.7C180.4,127,180.3,127.1,180.1,127.1z"/>
	<polygon class="st2" points="178.1,125.2 153.1,157.4 157,160.5 158.6,167.2 189.4,155.8 195.3,123.9 	"/>
	<path class="st3" d="M158.6,167.7c-0.1,0-0.2,0-0.2,0c-0.1-0.1-0.2-0.2-0.3-0.3l-1.6-6.5l-3.7-2.9c-0.2-0.2-0.3-0.5-0.1-0.7
		l25-32.2c0.1-0.1,0.2-0.2,0.4-0.2l17.2-1.3c0.2,0,0.3,0.1,0.4,0.2c0.1,0.1,0.2,0.3,0.1,0.4l-5.9,31.9c0,0.2-0.1,0.3-0.3,0.4
		l-30.8,11.4C158.7,167.7,158.7,167.7,158.6,167.7z M153.8,157.3l3.5,2.8c0.1,0.1,0.2,0.2,0.2,0.3l1.5,6.2l30-11.1l5.7-31l-16.2,1.2
		L153.8,157.3z"/>
	<polygon class="st3" points="181.2,130.6 177,125.2 190.9,119.5 194.1,123 	"/>
	<path class="st3" d="M181.2,131.1c-0.2,0-0.3-0.1-0.4-0.2l-4.2-5.5c-0.1-0.1-0.1-0.3-0.1-0.4c0-0.2,0.2-0.3,0.3-0.3l13.9-5.7
		c0.2-0.1,0.4,0,0.6,0.1l3.2,3.5c0.1,0.1,0.2,0.3,0.1,0.4c0,0.2-0.1,0.3-0.2,0.4l-12.9,7.7C181.4,131.1,181.3,131.1,181.2,131.1z
		 M177.8,125.4l3.5,4.6l12-7.1l-2.5-2.8L177.8,125.4z"/>
	<path class="st3" d="M188.2,129.6L188.2,129.6c-0.3,0-0.5-0.3-0.5-0.6c0-0.1,0.8-5.1,1.8-10.1c2.2-10.5,3.4-10.6,4.1-10.6
		c0.3,0,0.6,0.1,0.8,0.3c1.9,1.9,1.3,14.4,1.1,16.9c0,0.3-0.3,0.5-0.5,0.5c-0.3,0-0.5-0.3-0.5-0.5c0,0,0,0,0,0
		c0.5-8.4,0.1-15.8-0.9-16.2c-1.2,0.4-3.5,10.6-4.9,19.9C188.7,129.4,188.5,129.6,188.2,129.6z"/>
	<polygon class="st2" points="184.3,129.6 176,165.1 184.2,170.6 198.4,159.7 200.1,125.7 	"/>
	<path class="st3" d="M184.2,171.1c-0.1,0-0.2,0-0.3-0.1l-8.1-5.5c-0.2-0.1-0.3-0.3-0.2-0.5l8.3-35.5c0-0.2,0.2-0.3,0.4-0.4
		l15.8-3.9c0.2,0,0.3,0,0.4,0.1c0.1,0.1,0.2,0.3,0.2,0.4l-1.7,34c0,0.1-0.1,0.3-0.2,0.4L184.5,171
		C184.4,171.1,184.3,171.1,184.2,171.1z M176.6,164.9l7.6,5.1l13.7-10.6l1.7-33.1l-14.8,3.6L176.6,164.9z"/>
	<polygon class="st3" points="183.5,129.2 189.1,132 200.1,125.7 196.7,122.3 	"/>
	<path class="st3" d="M189.1,132.5c-0.1,0-0.2,0-0.2-0.1l-5.6-2.8c-0.2-0.1-0.3-0.3-0.3-0.5c0-0.2,0.1-0.4,0.3-0.5l13.2-6.9
		c0.2-0.1,0.4-0.1,0.6,0.1l3.5,3.4c0.1,0.1,0.2,0.3,0.2,0.4c0,0.2-0.1,0.3-0.3,0.4l-11,6.3C189.3,132.5,189.2,132.5,189.1,132.5z
		 M184.6,129.2l4.5,2.2l10.2-5.9l-2.7-2.6L184.6,129.2z"/>
	<line class="st4" x1="180.6" y1="132.7" x2="160.6" y2="163.2"/>
	<path class="st3" d="M160.6,163.7c-0.1,0-0.2,0-0.3-0.1c-0.2-0.2-0.3-0.5-0.1-0.7l20-30.5c0.2-0.2,0.5-0.3,0.7-0.1
		c0.2,0.1,0.3,0.5,0.2,0.7c0,0,0,0,0,0l-20,30.4C160.9,163.6,160.7,163.7,160.6,163.7z"/>
	<line class="st4" x1="189.9" y1="135.5" x2="185.5" y2="168.1"/>
	<path class="st3" d="M185.5,168.7L185.5,168.7c-0.3,0-0.5-0.3-0.5-0.6l4.4-32.7c0-0.3,0.3-0.5,0.6-0.4c0.3,0,0.5,0.3,0.4,0.6
		l-4.4,32.7C186,168.5,185.8,168.6,185.5,168.7z"/>
	<path class="st3" d="M193.3,128.7L193.3,128.7c-0.2,0-0.4-0.2-0.4-0.4c0.1-8.8,0.5-19.3,2-19.4l0,0c1.3,0,2.5,6,3.5,17.9
		c0,0.2-0.1,0.4-0.4,0.4c0,0,0,0,0,0c-0.2,0-0.4-0.1-0.4-0.4c0,0,0,0,0,0c-0.7-7.7-1.9-15.9-2.7-17.1c-0.7,1.3-1.2,10.2-1.3,18.5
		C193.6,128.5,193.5,128.7,193.3,128.7z"/>
	<path class="st2" d="M229.5,202.3l-7,20.6l-25.3-12.4c0,0-9.3,12.3-7.6,12.6c1.7,0.3,7.6-1.3,7.6-1.3s28.2,20.1,31.6,17.1
		c3.4-3,14.9-32.9,14.9-32.9"/>
	<path class="st3" d="M227.7,239.8c-1.9,0-6.2-1.5-16.2-7.8c-6.7-4.2-13.2-8.7-14.4-9.6c-1.2,0.3-6,1.5-7.6,1.2
		c-0.2,0-0.4-0.2-0.5-0.4c-0.6-1.5,5.3-9.6,7.9-12.9c0.1-0.2,0.4-0.2,0.6-0.1l24.8,12.2l6.8-20.1c0.1-0.2,0.3-0.4,0.6-0.3
		c0.2,0.1,0.4,0.3,0.3,0.6l-7,20.6c0,0.1-0.1,0.2-0.3,0.3c-0.1,0.1-0.3,0.1-0.4,0l-24.9-12.2c-3.7,4.9-7.4,10.4-7.5,11.6
		c1.5,0.2,5.7-0.9,7.2-1.3c0.1,0,0.3,0,0.4,0.1c10.8,7.7,28.7,19.1,31,17.1c2.6-2.3,10.8-22.4,14.8-32.7c0.1-0.2,0.4-0.4,0.6-0.3
		c0,0,0,0,0,0c0.2,0.1,0.4,0.4,0.3,0.6c-0.5,1.2-11.6,30-15,33C228.6,239.7,228.2,239.8,227.7,239.8z"/>
	<path class="st2" d="M273.9,200l24.4,46.7c0,0,13.4-4.8,12.4-3.4c-1,1.4-19.7,12.7-19.7,12.7l-34.1-53.1"/>
	<path class="st3" d="M291,256.5c-0.2,0-0.3-0.1-0.4-0.2l-34.1-53.1c-0.1-0.2-0.1-0.5,0.1-0.6c0,0,0,0,0,0c0.2-0.1,0.5-0.1,0.6,0.1
		c0,0,0,0,0,0l33.9,52.7c6.4-3.8,15.9-9.8,18.5-11.8c-3.8,1-7.5,2.2-11.2,3.5c-0.2,0.1-0.5,0-0.6-0.2l-24.4-46.8
		c-0.1-0.2,0-0.5,0.3-0.6c0.2-0.1,0.4,0,0.5,0.2l24.2,46.4c11.8-4.2,12.3-3.6,12.6-3.3c0.2,0.2,0.2,0.5,0,0.7
		c-1,1.4-17.9,11.7-19.9,12.8C291.2,256.5,291.1,256.5,291,256.5z"/>
	<path class="st3" d="M237.5,128.8c-6.5,6.5-4.8,18.4-5.2,28.6l32.2,4.9c0,0,1.8-28.7-2.8-33C257.1,124.9,244,122.3,237.5,128.8z"/>
	<path class="st3" d="M264.5,162.8L264.5,162.8l-32.3-4.9c-0.2,0-0.4-0.2-0.4-0.5c0.1-2,0.1-4.2,0.1-6.3c0-8.5-0.1-17.3,5.3-22.6
		l0,0c6.5-6.4,19.9-4.3,24.8,0.4c4.7,4.5,3,32.2,3,33.4c0,0.1-0.1,0.2-0.2,0.3C264.7,162.7,264.6,162.8,264.5,162.8z M232.8,157.1
		l31.3,4.8c0.2-3.8,1.3-28.3-2.7-32.2c-4-3.9-17-6.9-23.6-0.5c-5.1,5.1-5.1,13.6-5,21.9C232.8,153,232.8,155,232.8,157.1z"/>
	<polygon class="st3" points="261.2,145.5 274.7,149.2 278.3,134.4 259.5,127.7 	"/>
	<path class="st3" d="M274.7,149.6h-0.1l-13.5-3.6c-0.2,0-0.3-0.2-0.3-0.4l-1.7-17.9c0-0.2,0-0.3,0.2-0.4c0.1-0.1,0.3-0.1,0.4-0.1
		l18.8,6.7c0.2,0.1,0.3,0.3,0.3,0.5l-3.6,14.8c0,0.1-0.1,0.2-0.2,0.3C274.9,149.6,274.8,149.6,274.7,149.6z M261.6,145.2l12.8,3.4
		l3.4-14l-17.8-6.3L261.6,145.2z"/>
	<polyline class="st3" points="245.3,124.3 219.7,131.1 224.2,146.6 248.1,142.3 245.4,125.9 	"/>
	<path class="st3" d="M224.2,147c-0.2,0-0.4-0.1-0.4-0.3l-4.5-15.5c0-0.1,0-0.2,0-0.3c0.1-0.1,0.2-0.2,0.3-0.2l25.6-6.8
		c0.2-0.1,0.5,0.1,0.5,0.3c0.1,0.2-0.1,0.5-0.3,0.5l-25.1,6.7l4.3,14.7l23.1-4.2L245,126c0-0.2,0.1-0.5,0.4-0.5
		c0.2,0,0.5,0.1,0.5,0.4l0,0l2.7,16.4c0,0.2-0.1,0.5-0.4,0.5l-23.9,4.3H224.2z"/>
	<path class="st2" d="M254.5,120.8l0.6,6.3c0,0-0.3,3.6-4.2,2.9c-2.4-0.5-4.4-1.9-5.5-4.1c-0.1-0.5-0.1-1.1-0.1-1.6l-0.2-3.7
		c-0.1-1.9-0.4-3.8-0.3-5.6c0.1-1.9,0-3.8,0.1-5.7c0-0.1,0-0.2,0.1-0.3c0.1-0.1,0.2-0.1,0.3-0.1c0.5-0.1,1.1-0.1,1.6,0
		c0-1.3-0.1-2.6-0.5-3.9c1.1,0.8,2,1.9,2.5,3.2c1.3-0.1,2.6,0,3.9,0.2c0.2-0.9,0-1.8-0.4-2.6c0.5,0.7,1,1.4,1.5,2.1
		c0.6,0.2,1.2,0.3,1.9,0.2c0.3-0.3,0.2-2,0.2-2.5c0.9,1.1,1.5,2.4,1.8,3.9c0.2,2.6,0.3,5.3,0.3,8c0.2,1.7-1,3.2-2.7,3.4
		C255.1,120.8,254.8,120.8,254.5,120.8z"/>
	<path class="st3" d="M251.9,130.5c-0.3,0-0.7,0-1-0.1c-2.5-0.5-4.6-2.1-5.8-4.3c-0.1-0.4-0.2-0.9-0.1-1.4c0-0.1,0-0.3,0-0.4
		l-0.3-3.7c0-0.6-0.1-1.2-0.1-1.8c-0.1-1.3-0.2-2.5-0.2-3.8c0-0.9,0-1.8,0-2.7c0-1,0-2,0-3c0-0.2,0.1-0.4,0.2-0.6
		c0.1-0.1,0.3-0.2,0.5-0.2c0.4-0.1,0.8-0.1,1.2,0c0-1.1-0.2-2.2-0.4-3.2c-0.1-0.2,0-0.4,0.2-0.5c0.2-0.1,0.4-0.1,0.5,0
		c1.1,0.8,2,1.9,2.5,3.1c1.1,0,2.1,0,3.2,0.1c0-0.7-0.1-1.3-0.4-1.9c-0.1-0.2,0-0.5,0.3-0.6c0.2-0.1,0.4,0,0.5,0.1
		c0.5,0.6,1,1.3,1.5,2c0.4,0.1,0.8,0.1,1.3,0.2c0-0.3,0.1-1.1,0.1-1.5c0-0.4,0-0.5,0-0.6c0-0.3,0.2-0.4,0.5-0.4
		c0.1,0,0.3,0.1,0.3,0.2c1,1.2,1.6,2.6,1.9,4.1c0.3,2.5,0.4,4.9,0.3,7.4v0.7c0,1.1-0.4,2.2-1.2,3c-0.6,0.5-1.4,0.8-2.2,0.8l0.6,5.7
		c-0.1,1.1-0.6,2.1-1.4,2.8C253.4,130.2,252.7,130.5,251.9,130.5z M245.3,109.3c0,1,0,2,0,3c0,0.9,0,1.8,0,2.7c0,1.2,0,2.5,0.2,3.7
		c0.1,0.6,0.1,1.3,0.1,1.9l0.2,3.7c0,0.2,0,0.3,0,0.5c0,0.3,0,0.6,0.1,0.9c1.1,2,3,3.3,5.2,3.8c0.9,0.2,1.8,0.1,2.6-0.4
		c0.6-0.5,1-1.2,1.1-2l-0.6-6.2c0-0.3,0.2-0.5,0.4-0.5c0,0,0.1,0,0.1,0c0.7,0.1,1.5-0.1,2-0.6c0.6-0.6,1-1.4,0.9-2.3v-0.6
		c0.1-2.4,0-4.8-0.3-7.2c-0.2-0.9-0.5-1.7-0.9-2.5c0,0.8-0.1,1.2-0.4,1.4c-0.4,0.4-2.3-0.1-2.3-0.1c-0.1-0.1-0.2-0.1-0.3-0.2l0,0
		l-0.2-0.3c0,0.2,0,0.5-0.1,0.7c0,0.2-0.3,0.4-0.5,0.4c-1.3-0.2-2.5-0.2-3.8-0.2c-0.2,0-0.4-0.1-0.5-0.3c-0.3-0.8-0.7-1.5-1.3-2.1
		c0.1,0.8,0.2,1.7,0.2,2.6c0,0.3-0.2,0.5-0.5,0.5c0,0-0.1,0-0.1,0C246.3,109.2,245.8,109.2,245.3,109.3z"/>
	<path class="st3" d="M254.8,123.9c-1.5,0.2-3.1-0.3-4.3-1.2c-1-0.8-1.7-2-1.7-3.3c1.8,0.9,3.8,1.4,5.8,1.4L254.8,123.9z"/>
	<path class="st3" d="M254.1,124.4c-1.4,0-2.8-0.4-4-1.3c-1.1-0.9-1.8-2.2-1.9-3.6c0-0.2,0.1-0.3,0.2-0.4c0.1-0.1,0.3-0.1,0.4,0
		c1.7,0.9,3.6,1.3,5.6,1.3c0.2,0,0.5,0.2,0.5,0.4c0,0,0,0,0,0l0.3,3c0,0.2-0.1,0.5-0.4,0.5C254.6,124.3,254.3,124.3,254.1,124.4z
		 M249.3,120.2c0.3,0.9,0.8,1.6,1.5,2.2c1,0.8,2.3,1.2,3.6,1.1l-0.2-2.2C252.4,121.2,250.8,120.8,249.3,120.2z"/>
	<path class="st3" d="M252.5,116.2c-0.2,0-0.4,0-0.7,0c-0.2,0-0.4-0.3-0.4-0.5c0-0.2,0.3-0.4,0.5-0.4c0.5,0.1,1.2,0,1.4-0.2
		c-0.5-1-1.1-2-1.9-2.9c-0.2-0.2-0.1-0.5,0.1-0.6c0,0,0,0,0,0c0.2-0.2,0.5-0.1,0.6,0.1c2.5,3.1,2,3.7,1.9,4
		C253.6,116,253,116.2,252.5,116.2z"/>
	<path class="st2" d="M246.6,111.6c-0.3-0.8-0.8-1.5-1.4-2c-0.6-0.6-1.5-0.7-2.3-0.3c-0.7,0.6-1,1.5-0.9,2.4c0.1,1,0.4,2,0.8,3
		c0.2,0.6,0.6,1.1,1,1.5c0.5,0.4,1.2,0.4,1.7,0.1"/>
	<path class="st3" d="M244.9,116.9c-0.5,0-0.9-0.2-1.2-0.4c-0.5-0.4-0.9-1-1.1-1.7c-0.4-1-0.7-2-0.9-3c-0.2-1.1,0.2-2.2,1.1-2.9
		c0.9-0.5,2.1-0.3,2.8,0.4c0.6,0.6,1.2,1.3,1.5,2.2c0.1,0.2,0.1,0.5-0.2,0.6c-0.2,0.1-0.5,0.1-0.6-0.2c0,0,0,0,0-0.1
		c-0.3-0.7-0.7-1.3-1.2-1.9c-0.5-0.4-1.2-0.6-1.7-0.3c-0.7,0.4-0.7,1.6-0.6,2c0.1,1,0.4,1.9,0.8,2.8c0.2,0.5,0.5,0.9,0.9,1.3
		c0.3,0.3,0.8,0.3,1.1,0.1c0.2-0.2,0.5-0.1,0.7,0.1c0.2,0.2,0.1,0.5-0.1,0.6C245.6,116.8,245.3,116.9,244.9,116.9z"/>
	<path class="st6" d="M289.8,254.4c0.1,0.1,9.8-6.3,9.8-6.3s-0.3-2.9,0.5-3.5c0.8-0.6,12-3.9,13-2.4c0.9,1.6-21.7,16.5-21.7,16.5
		L289.8,254.4z"/>
	<path class="st3" d="M291.4,259.1h-0.1c-0.1,0-0.2-0.1-0.3-0.3l-1.6-4.2c-0.1-0.2,0-0.4,0.2-0.5h0.1c0.6-0.3,5.9-3.7,9.5-6.1
		c-0.1-1-0.1-3,0.7-3.7c0.8-0.6,9.8-3.3,12.6-2.8c0.4,0,0.8,0.2,1,0.6c0.3,0.5,0.8,1.3-10.6,9.4c-5.5,3.9-11.2,7.6-11.2,7.6
		C291.6,259.1,291.5,259.1,291.4,259.1z M290.4,254.6l1.3,3.4c9.9-6.5,20.3-14,21-15.6c-0.1,0-0.2-0.1-0.3-0.1
		c-2.5-0.5-11.3,2.1-11.9,2.6c-0.4,0.3-0.5,1.8-0.3,3.1c0,0.2-0.1,0.3-0.2,0.4C293.8,252.5,291.4,254,290.4,254.6L290.4,254.6z"/>
	<path class="st6" d="M199.8,211.3l-6.6,9.7l2,2.4c0,0-8.5,5.1-10,3.9c-1.5-1.2,10.7-18.2,10.7-18.2L199.8,211.3z"/>
	<path class="st3" d="M185.8,227.9c-0.3,0-0.7-0.1-1-0.3c-1.5-1.2,5-10.9,10.6-18.8c0.1-0.2,0.4-0.2,0.6-0.1l3.9,2.2
		c0.1,0.1,0.2,0.2,0.2,0.3c0,0.1,0,0.3-0.1,0.4l-6.4,9.4l1.7,2.2c0.1,0.1,0.1,0.2,0.1,0.4c0,0.1-0.1,0.2-0.2,0.3
		C193.6,224.9,188.3,227.9,185.8,227.9z M196,209.7c-5.5,7.7-10.9,16.1-10.5,17.3c0.7,0.5,5.1-1.4,9-3.7l-1.6-2
		c-0.1-0.2-0.1-0.4,0-0.5l6.3-9.3L196,209.7z"/>
	<path class="st3" d="M252.4,118.5h-0.3c-1.2-0.1-2.3-1-3.1-2.8c-0.1-0.2,0-0.5,0.2-0.6c0,0,0,0,0,0c0.2-0.1,0.5,0,0.6,0.2
		c0.7,1.4,1.5,2.2,2.4,2.3c1-0.1,1.9-0.5,2.5-1.3c0.2-0.2,0.4-0.2,0.6-0.1c0,0,0,0,0,0c0.2,0.1,0.2,0.4,0.1,0.6c0,0,0,0,0,0
		C254.7,117.8,253.6,118.4,252.4,118.5z"/>
	<path class="st3" d="M248.6,110.9c-0.1,0-0.2,0-0.3-0.1c-0.2-0.1-0.2-0.4-0.1-0.6c0.1-0.1,0.9-1.2,1.8-1.1c0.5,0.1,0.9,0.4,1.1,0.9
		c0.1,0.2-0.1,0.5-0.3,0.6c-0.2,0.1-0.4,0-0.5-0.2c-0.1-0.2-0.2-0.4-0.4-0.4c-0.2,0-0.7,0.4-1,0.7
		C248.8,110.9,248.7,111,248.6,110.9z"/>
	<path class="st3" d="M255.6,111c-0.2,0-0.3-0.1-0.4-0.3c-0.1-0.2-0.4-0.7-0.8-0.8c-0.4-0.1-0.4,0.5-0.4,0.5
		c-0.1,0.2-0.3,0.4-0.6,0.3c-0.2-0.1-0.4-0.3-0.3-0.6c0,0,0,0,0,0c0.1-0.7,0.8-1.2,1.5-1.1c0.6,0.2,1.1,0.7,1.4,1.3
		c0.1,0.2,0,0.5-0.2,0.6c0,0,0,0,0,0C255.7,111,255.7,111,255.6,111z"/>
	<polygon class="st2" points="239.8,162.1 239.4,125.2 243.3,123.9 243.4,162.7 	"/>
	<polygon class="st2" points="257.6,125.6 257,160.6 260.4,161.7 261.2,126.7 	"/>
	<path class="st2" d="M197.7,107.6c-0.8-0.9-1.9-1.4-3-1.3c-1.1,0.1-2.3,0.3-3.3,0.7c-0.2,0.1-0.5,0.2-0.5,0.4
		c0,0.2,0.2,0.3,0.4,0.4c1.2,0.5,2.5,0.7,3.8,0.7c-0.6,0.8-0.8,1.8-0.5,2.7c0.2,1.3,0.9,2.5,1.9,3.3c1,0.9,2.5,1,3.6,0.4"/>
	<path class="st3" d="M198.6,115.7c-0.9,0-1.8-0.3-2.4-0.9c-1.1-0.9-1.8-2.2-2-3.6c-0.2-0.8-0.2-1.6,0.1-2.4
		c-1.1-0.1-2.1-0.3-3.1-0.7c-0.4-0.1-0.6-0.4-0.7-0.8c0-0.2,0-0.7,0.8-0.9c1.1-0.4,2.3-0.6,3.5-0.7l0,0c1.3,0,2.6,0.5,3.4,1.5
		c0.2,0.2,0.2,0.5,0,0.7c-0.2,0.2-0.5,0.2-0.7,0c0,0,0-0.1-0.1-0.1c-0.7-0.8-1.6-1.2-2.6-1.1l0,0c-1.1,0.1-2.1,0.3-3.1,0.6
		c1.1,0.4,2.3,0.7,3.5,0.6c0.2,0,0.4,0.1,0.4,0.3c0.1,0.2,0,0.4-0.1,0.5c-0.5,0.7-0.6,1.5-0.4,2.3c0.2,1.2,0.8,2.3,1.7,3
		c0.9,0.7,2.1,0.9,3,0.3c0.2-0.1,0.5,0,0.6,0.2c0.1,0.2,0,0.4-0.1,0.6C199.8,115.6,199.2,115.7,198.6,115.7z"/>
	<path class="st3" d="M170.5,209.6c-0.1,0-0.3-0.1-0.4-0.2c-0.2-0.2-0.2-0.5,0-0.7c0,0,0,0,0,0l43-42c0.2-0.2,0.5-0.2,0.7-0.1
		s0.2,0.5,0.1,0.7c0,0,0,0-0.1,0.1l-42.9,42C170.8,209.6,170.7,209.6,170.5,209.6z"/>
	<path class="st3" d="M212.3,109.1c-0.1,0-0.3-0.1-0.4-0.2c-0.2-0.2-0.2-0.5,0.1-0.7c0,0,0,0,0,0l13.1-11c0.2-0.2,0.5-0.2,0.7,0.1
		c0,0,0,0,0,0c0.2,0.2,0.2,0.5-0.1,0.7l-13.1,11C212.5,109.1,212.4,109.1,212.3,109.1z"/>
	<path class="st3" d="M174.2,188.6c-0.3,0-0.5-0.2-0.5-0.5c0-0.1,0.1-0.3,0.2-0.4l14-12.6c0.2-0.2,0.5-0.2,0.7,0
		c0.2,0.2,0.2,0.5,0,0.7l-14,12.6C174.5,188.6,174.3,188.7,174.2,188.6z"/>
	<ellipse class="st3" cx="116" cy="264.2" rx="8.9" ry="1.4"/>
	<path class="st3" d="M117.7,223.6c0.1-1.3-0.2-2.5-0.8-3.6c-0.6-0.7-1.1-1.5-1.6-2.3c-0.7-1.5-0.2-3.3-0.4-4.8
		c-0.1-1.4-0.7-2.6-1.7-3.6c-0.8-0.8-1.9-1.4-2.7-2.3c-1.3-1.5-1.7-3.5-2.5-5.3c-1.1-2.6-2.9-4.7-5.3-6.2c1.4,2.9-1.8,6.6-0.3,9.5
		c0.5,0.9,1.4,1.6,1.7,2.5c0.8,2.3-1.9,4.9-1.1,7.2c0.4,1.1,1.7,1.8,2.3,2.9c0.8,1.5,0.2,3.3,0.2,4.9c0.2,2.3,1.4,4.4,3.1,6
		c1.1,1,2.2,1.9,3.3,2.7c1.3,1.1,1.9,2.2,3.1,0.5C116.7,229.2,117.6,226.5,117.7,223.6z"/>
	<path class="st3" d="M119.2,224.9c-0.6-1.8-0.6-3.7,0-5.4c0.8-1.9,2.9-3.3,3.1-5.3c0.2-1.3-0.5-2.7-0.3-4s1.4-2.2,2.2-3.3
		c2.1-2.3,3.3-5.2,3.5-8.2c1.4,1.6,2.5,3.5,3.3,5.4c0.8,2,0.6,4.3-0.5,6.2c-0.3,0.4-0.6,0.9-0.8,1.4c-0.4,1.3,0.7,2.5,1.3,3.8
		c0.7,1.4,0.5,3.2-0.4,4.5c-1.2,1.5-3.4,2-4,3.8c-0.1,0.7-0.2,1.3-0.2,2c-0.3,2.4-2,4.5-4.3,5.1c-1.4,0.3-1.4-0.2-1.6-1.4
		C120.2,228,119.6,226.5,119.2,224.9z"/>
	<path class="st3" d="M114.8,212.1c-1-3.4-1.4-7-2.4-10.4c-0.9-2.7-2-5.3-3.3-7.8l4.2,1.8c1.4,0.6,2.8,1.2,3.5,2.6
		c1.1,2.3-0.9,5.3,0.3,7.6c0.5,0.7,1.1,1.4,1.7,2.1c1.2,1.7,1.1,4.2,0.4,6.2c-0.3,0.9-1.6,5.4-2.7,4.2c-0.5-0.5-0.5-2.4-0.7-3.1
		C115.4,214.2,115.1,213.2,114.8,212.1z"/>
	<path class="st3" d="M117.1,257.6c-0.8-5.6-3.5-25.3-3.5-25.5l0.7-0.1c0,0.2,2.7,19.9,3.5,25.5L117.1,257.6z"/>
	<path class="st3" d="M118.1,262.8h-0.7c0-6.6,2.8-32,4.4-33.7l0.5,0.5C121.2,230.7,118.2,253.7,118.1,262.8z"/>
	<path class="st3" d="M119.5,261.5h-0.7c0.6-14.3-2.4-44.4-2.4-44.7l0.7-0.1C117.1,217.1,120.2,247.2,119.5,261.5z"/>
	<path class="st2" d="M109.8,244.1h15.8l-1.1,16c-0.2,2.8-2.5,4.9-5.3,4.9h-3c-2.8,0-5.1-2.1-5.3-4.9L109.8,244.1z"/>
	<path class="st3" d="M119.2,265.5h-3c-3.1,0-5.6-2.4-5.8-5.4l-1.1-16c0-0.1,0-0.3,0.1-0.4c0.1-0.1,0.2-0.2,0.4-0.2h15.8
		c0.1,0,0.3,0.1,0.4,0.2c0.1,0.1,0.2,0.3,0.1,0.4l-1.1,16C124.9,263.1,122.3,265.5,119.2,265.5z M110.4,244.6l1.1,15.4
		c0.2,2.5,2.2,4.4,4.7,4.4h3c2.5,0,4.5-1.9,4.7-4.4l1.1-15.4H110.4z"/>
	<path class="st3" d="M231.4,153.4c0,0-2.8,18.1-13.5,63c0,0,1.3,7.4,24,7.8s42.2-15.8,42.2-15.8L266.1,157L231.4,153.4z"/>
	<path class="st2" d="M251.6,176.1H251c-11.1-0.4-11.7-12.8-11.7-13c0-0.1,0-0.3,0.1-0.4c0.1-0.1,0.2-0.2,0.4-0.2l23,0.2
		c0.3,0,0.5,0.2,0.5,0.5c0.5,3.4-0.6,6.9-2.8,9.5C258.4,175,255.5,176.1,251.6,176.1z M240.3,163.6c0.2,1.9,0.7,3.7,1.5,5.4
		c1.6,3.7,5.2,6.1,9.2,6.1c3.8,0.1,6.8-0.9,8.7-3c1.9-2.3,2.9-5.3,2.6-8.2L240.3,163.6z"/>
</g>
</svg>
