<?xml version="1.0" encoding="utf-8"?>
<!-- Generator: Adobe Illustrator 24.3.0, SVG Export Plug-In . SVG Version: 6.00 Build 0)  -->
<svg version="1.1" id="Layer_1" xmlns="http://www.w3.org/2000/svg" xmlns:xlink="http://www.w3.org/1999/xlink" x="0px" y="0px"
	 viewBox="0 0 18 17.11" style="enable-background:new 0 0 18 17.11;" xml:space="preserve">
<style type="text/css">
	.st0{fill:#FD5722;}
</style>
<polygon class="st0" points="12.21,3.79 17.95,5.7 17.95,2.85 9.38,0 9.38,1.01 9.38,2.86 9.38,5.7 9.38,8.56 9.38,11.4 9.38,11.98 
	9.38,14.26 17.95,17.11 17.95,14.25 12.21,12.34 12.21,9.5 17.95,11.4 17.95,8.55 12.21,6.64 "/>
<polygon class="st0" points="0.05,2.85 0.05,5.7 5.79,3.79 5.79,3.79 5.79,12.34 2.94,13.29 2.94,11.41 0.05,12.34 0.05,14.25 
	0.05,17.11 8.62,14.26 8.62,11.98 8.62,11.4 8.62,2.86 8.62,1.01 8.62,0 "/>
</svg>
