<?xml version="1.0" encoding="utf-8"?>
<!-- Generator: Adobe Illustrator 24.3.0, SVG Export Plug-In . SVG Version: 6.00 Build 0)  -->
<svg version="1.1" id="Layer_1" xmlns="http://www.w3.org/2000/svg" xmlns:xlink="http://www.w3.org/1999/xlink" x="0px" y="0px"
	 viewBox="0 0 406 306" style="enable-background:new 0 0 406 306;" xml:space="preserve">
<style type="text/css">
	.st0{opacity:0.1;clip-path:url(#SVGID_2_);}
	.st1{fill:#FFFFFF;}
	.st2{fill:#171725;}
	.st3{fill:#D1D3D4;}
</style>
<g>
	<defs>
		<path id="SVGID_1_" d="M343.6,191.2c-32.3,26.9-59.6,54.8-82,83.7c-22.4,28.9-50.5,36.3-84.5,22.4c-34-14-69.4-30.8-106.3-50.4
			s-53.8-51.1-50.8-94.5S43,79.5,79.9,63.9s70.8-32.8,101.8-51.8s59.7-15.8,86.1,9.6c26.4,25.4,53.7,53.2,82,83.5
			S375.9,164.3,343.6,191.2z"/>
	</defs>
	<clipPath id="SVGID_2_">
		<use xlink:href="#SVGID_1_"  style="overflow:visible;"/>
	</clipPath>
	<g class="st0">
		<path class="st1" d="M343.6,191.2c-32.3,26.9-59.6,54.8-82,83.7c-22.4,28.9-50.5,36.3-84.5,22.4c-34-14-69.4-30.8-106.3-50.4
			s-53.8-51.1-50.8-94.5S43,79.5,79.9,63.9s70.8-32.8,101.8-51.8s59.7-15.8,86.1,9.6c26.4,25.4,53.7,53.2,82,83.5
			S375.9,164.3,343.6,191.2z"/>
	</g>
</g>
<g id="_463_information_carousel_flatline">
	<path class="st1" d="M121.9,242.2L77.7,218c10.2-15.5,10.9-24.4,12.7-36.7c5.6-39.4,44.7-64.6,75.1-85.3c2.6-1.8,5.2-3.5,7.9-5
		c3.2-1.7,12.2-7.1,14.6-2.1c2.3,4.8-3.3,13.4-6.2,16.9c1.8-2.8,3.9-5.4,6.1-7.8c0.7-0.9,1.6-1.6,2.7-2c2-0.5,4,1.5,4.3,3.5
		c0.3,2.1-0.5,4.1-1.5,6c-2.3,4.5-5.1,8.6-8.4,12.4c2.2-2.5,10.5-12,10.3-2.4c-0.1,6-2.7,11.8-7,16c1.9-1.7,3.9-3.2,6.1-4.5
		c0.6-0.5,1.4-0.7,2.2-0.6c0.8,0.4,1.4,1.2,1.5,2.1c1.4,6.2-2,10.5-4.4,15.8c-1.8,4.1-2.9,7.9-5.2,11.9
		c-8.4,14.3-17.1,24.2-26.7,37.7C159.4,197.3,122,242.2,121.9,242.2z"/>
	<path class="st2" d="M121.9,242.7c-0.1,0-0.1,0-0.2-0.1l0,0l-44.2-24.2c-0.1-0.1-0.2-0.2-0.2-0.3c0-0.1,0-0.3,0.1-0.4
		c9.5-14.5,10.7-23.3,12.3-34.4l0.3-2.1c5.4-38.1,42.2-63.1,71.7-83.2l3.6-2.4c2.6-1.8,5.2-3.5,8-5.1l0.7-0.4
		c3-1.7,8.7-4.8,12.2-3.6c1,0.3,1.9,1.1,2.3,2.1c1.2,2.6,0.4,6-1.1,9.1l0.2-0.3c0.8-1,1.8-1.7,3-2.1c1-0.2,2,0,2.8,0.6
		c1.1,0.8,1.9,2,2.1,3.4c0.3,2.2-0.5,4.3-1.5,6.3c-1.1,2.3-2.4,4.4-3.9,6.5c1.5-1.1,3-1.8,4.1-1.3c1.1,0.4,1.7,2,1.7,4.6
		c-0.1,4.5-1.5,8.9-4.1,12.6c0.8-0.5,1.5-1,2.3-1.5c0.7-0.6,1.7-0.8,2.6-0.6c1,0.4,1.7,1.4,1.8,2.5c1.1,5.1-0.8,8.9-2.9,12.9
		c-0.5,1-1,2.1-1.6,3.2c-0.6,1.4-1.2,2.9-1.7,4.2c-1,2.7-2.1,5.2-3.5,7.7c-5.6,9.5-11.3,17-17.3,25c-3,4-6.2,8.1-9.4,12.7
		c-1.6,2.2-16.3,20.1-20.8,25.5c-4.8,5.8-9.6,11.5-13.1,15.8C123,241.8,122.2,242.7,121.9,242.7z M78.4,217.8l43.4,23.7
		c3-3.7,36.8-44.1,39.6-47.9c3.2-4.5,6.4-8.7,9.4-12.7c6-8,11.7-15.5,17.3-24.9c1.4-2.4,2.5-4.9,3.4-7.6c0.5-1.4,1.1-2.8,1.7-4.3
		c0.5-1.1,1-2.2,1.6-3.2c2-3.9,3.8-7.6,2.8-12.3c-0.2-0.7-0.5-1.6-1.1-1.7c-0.6-0.1-1.3,0.1-1.8,0.5c-2.2,1.3-4.2,2.8-6.1,4.4
		c-0.2,0.2-0.5,0.2-0.7,0c-0.2-0.2-0.2-0.5,0-0.7c4.3-4.1,6.8-9.7,7-15.7c0-2.1-0.3-3.3-1-3.6c-1.3-0.5-4.1,1.6-8.3,6.3l-0.1,0.1
		l0,0c-0.2,0.2-0.5,0.3-0.7,0.1c-0.2-0.2-0.3-0.5-0.1-0.7c0,0,0.1-0.1,0.1-0.1c3.3-3.7,6-7.8,8.3-12.2c0.9-1.8,1.7-3.8,1.4-5.7
		c-0.2-1.1-0.8-2.1-1.7-2.7c-0.6-0.4-1.3-0.6-2-0.4c-1,0.3-1.8,1-2.5,1.8c-1.3,1.4-2.5,2.9-3.7,4.5c-1.2,1.9-2.3,3.2-2.4,3.3
		c-0.2,0.2-0.5,0.2-0.7,0.1c-0.2-0.2-0.3-0.5-0.1-0.7c0.8-1.2,1.6-2.4,2.5-3.5c2.6-4.1,5.2-9.6,3.6-12.9c-0.3-0.8-0.9-1.3-1.7-1.6
		c-3.1-1-8.7,2-11.4,3.5l-0.7,0.4c-2.7,1.5-5.4,3.2-7.9,5l-3.6,2.4c-29.4,20-66,44.9-71.3,82.6l-0.3,2
		C89,194.6,87.8,203.4,78.4,217.8z"/>
	<path class="st2" d="M132.5,267.9l6.3-38.1c0,0-58.6-23.1-59.6-23.6c-0.7-0.4-21.4,61.7-21.4,61.7H132.5z"/>
	<path class="st2" d="M132.5,268.4H57.7c-0.3,0-0.5-0.2-0.5-0.5c0-0.1,0-0.1,0-0.2c20.5-61.6,21.4-61.9,21.7-62
		c0.1-0.1,0.3-0.1,0.4,0c1,0.5,39.4,15.7,59.6,23.6c0.2,0.1,0.4,0.3,0.3,0.5L133,268C132.9,268.2,132.7,268.4,132.5,268.4z
		 M58.4,267.4H132l6.2-37.2c-5.2-2-53.7-21.2-58.9-23.3C77.6,210.5,66.1,244.3,58.4,267.4L58.4,267.4z"/>
	<path class="st2" d="M94.2,63.7l83.4-25.3c3.6-1.1,7.4,0.9,8.4,4.5l45.9,151c1.1,3.6-0.9,7.4-4.5,8.4L144,227.7
		c-3.6,1.1-7.4-0.9-8.4-4.5l-45.9-151C88.6,68.6,90.6,64.8,94.2,63.7z"/>
	<path class="st2" d="M142.1,228.5c-3.2,0-6-2.1-7-5.2l-45.9-151c-1.2-3.8,0.9-7.9,4.8-9.1c0,0,0,0,0.1,0l83.4-25.4
		c3.8-1.2,7.9,1,9.1,4.8c0,0,0,0,0,0l45.9,151.1c1.2,3.8-1,7.9-4.9,9.1l0,0l-83.4,25.4C143.5,228.5,142.8,228.5,142.1,228.5z
		 M179.7,38.6c-0.6,0-1.2,0.1-1.8,0.3L94.4,64.2c-3.3,1-5.2,4.5-4.2,7.8c0,0,0,0,0,0L136,223c1,3.3,4.5,5.2,7.8,4.2l83.4-25.4
		c3.3-1,5.1-4.4,4.2-7.7l-45.9-151C184.8,40.4,182.3,38.6,179.7,38.6L179.7,38.6z M227.5,202.4L227.5,202.4z"/>
	
		<rect x="113.9" y="61.2" transform="matrix(0.9568 -0.2907 0.2907 0.9568 -30.4779 51.7684)" class="st1" width="90.1" height="134.5"/>
	<path class="st2" d="M135.8,206.5c-0.1,0-0.2,0-0.2-0.1c-0.1-0.1-0.2-0.2-0.3-0.3L96.2,77.5c-0.1-0.1-0.1-0.3,0-0.4
		c0.1-0.1,0.2-0.2,0.3-0.2l86.3-26.2c0.3-0.1,0.5,0.1,0.6,0.3l39.1,128.7c0.1,0.3-0.1,0.6-0.3,0.6c0,0,0,0,0,0l-86.3,26.2
		C135.9,206.5,135.9,206.5,135.8,206.5z M97.4,77.7l38.8,127.7l85.3-25.9L182.6,51.8L97.4,77.7z"/>
	<path class="st1" d="M176.1,211.4c-1.7,0-3.1-1.1-3.6-2.7l-1.2-4c-0.6-2,0.5-4.1,2.5-4.7l15.7-4.8c2-0.6,4.1,0.5,4.7,2.5
		c0,0,0,0,0,0l1.2,4.1c0.6,2-0.5,4.1-2.5,4.7c0,0,0,0,0,0l-15.7,4.8C176.8,211.4,176.5,211.5,176.1,211.4z M190.6,196.1
		c-0.3,0-0.5,0-0.8,0.1l-15.7,4.8c-1.4,0.4-2.3,2-1.8,3.4l1.2,4c0.4,1.4,2,2.3,3.4,1.8l15.7-4.8l0,0c1.4-0.4,2.3-2,1.8-3.4
		c0,0,0,0,0,0l-1.2-4C192.9,196.9,191.8,196.1,190.6,196.1z"/>
	<path class="st1" d="M118.8,64.8c-0.2,0-0.4-0.1-0.5-0.4c-0.1-0.3,0.1-0.6,0.3-0.6l27.3-8.3c0.3-0.1,0.6,0.1,0.7,0.4
		c0.1,0.3-0.1,0.6-0.4,0.7l-27.3,8.2L118.8,64.8z"/>
	<path class="st1" d="M149.9,55.3c-0.2,0-0.4-0.1-0.5-0.4c-0.1-0.3,0.1-0.6,0.3-0.6c0,0,0,0,0,0l3.7-1.1c0.3-0.1,0.6,0,0.7,0.3
		s0,0.6-0.3,0.7c0,0-0.1,0-0.1,0l-3.7,1.1C150,55.3,150,55.3,149.9,55.3z"/>
	
		<rect x="119.6" y="98.2" transform="matrix(0.9568 -0.2907 0.2907 0.9568 -30.8702 49.1278)" class="st2" width="60.6" height="60.6"/>
	<path class="st2" d="M129.7,166.8c-0.2,0-0.4-0.1-0.5-0.4l-17.6-58c-0.1-0.3,0.1-0.5,0.3-0.6c0,0,0,0,0,0l57.9-17.6
		c0.3-0.1,0.6,0.1,0.6,0.3l17.6,57.9c0.1,0.3-0.1,0.6-0.3,0.6l-57.9,17.6C129.9,166.8,129.8,166.8,129.7,166.8z M112.8,108.6
		l17.3,57l57-17.3l-17.3-57L112.8,108.6z"/>
	
		<rect x="130.7" y="157.1" transform="matrix(0.9568 -0.2907 0.2907 0.9568 -40.9549 53.9064)" class="st1" width="60.6" height="15.4"/>
	<path class="st2" d="M134.2,181.5c-0.1,0-0.2,0-0.2-0.1c-0.1-0.1-0.2-0.2-0.2-0.3l-4.5-14.7c-0.1-0.3,0.1-0.6,0.3-0.6l58-17.6
		c0.3-0.1,0.5,0.1,0.6,0.3l4.5,14.7c0,0.1,0,0.3,0,0.4c-0.1,0.1-0.2,0.2-0.3,0.2l-58,17.6C134.3,181.5,134.3,181.5,134.2,181.5z
		 M130.4,166.6l4.2,13.8l57-17.3l-4.2-13.8L130.4,166.6z"/>
	<path class="st3" d="M137.7,169c-0.2,0-0.4-0.1-0.5-0.4c-0.1-0.3,0.1-0.6,0.3-0.6l44.7-13.6c0.3-0.1,0.6,0.1,0.7,0.4
		c0.1,0.3-0.1,0.6-0.4,0.7L137.8,169L137.7,169z"/>
	<path class="st3" d="M139.3,174.2c-0.2,0-0.4-0.1-0.5-0.4c-0.1-0.3,0.1-0.5,0.3-0.6l41.7-12.7c0.3-0.1,0.6,0.1,0.7,0.4
		c0.1,0.3-0.1,0.6-0.4,0.7l-41.7,12.7C139.4,174.2,139.3,174.2,139.3,174.2z"/>
	<path class="st1" d="M135.7,146.2c-0.2,0-0.4-0.2-0.5-0.4l-7.2-23.7c-0.1-0.1-0.1-0.3,0-0.4c0.1-0.1,0.2-0.2,0.3-0.2l35.7-10.8
		c0.1-0.1,0.3-0.1,0.4,0c0.1,0.1,0.2,0.2,0.2,0.3l7.2,23.7c0,0.1,0,0.3,0,0.4c-0.1,0.1-0.2,0.2-0.3,0.2l-35.7,10.8L135.7,146.2z
		 M129.1,122.4l6.9,22.7l34.7-10.5l-6.9-22.7L129.1,122.4z"/>
	<path class="st1" d="M135.7,146.2c-0.1,0-0.2,0-0.2-0.1c-0.2-0.1-0.3-0.4-0.2-0.7c0,0,0,0,0,0l9.1-17c0.1-0.1,0.2-0.2,0.3-0.3
		c0.1-0.1,0.3-0.1,0.4,0l17,9.1c0.2,0.1,0.3,0.4,0.2,0.7c-0.1,0.2-0.4,0.3-0.7,0.2l-16.6-8.9l-8.8,16.6
		C136,146.1,135.9,146.2,135.7,146.2z"/>
	<path class="st1" d="M157.3,135.9c-0.1,0-0.2,0-0.3-0.1c-0.2-0.1-0.3-0.4-0.2-0.7l4.3-7.6c0.1-0.2,0.4-0.3,0.6-0.2l8.7,3.7
		c0.3,0.1,0.4,0.4,0.2,0.7c-0.1,0.2-0.4,0.4-0.6,0.3l-8.3-3.5l-4.1,7.3C157.7,135.8,157.5,135.9,157.3,135.9z"/>
	<path class="st1" d="M154.1,127.3c-1.6,0-3-1.1-3.5-2.6c-0.6-1.9,0.5-4,2.4-4.6c0,0,0,0,0,0c1.9-0.6,4,0.5,4.6,2.4c0,0,0,0,0,0l0,0
		c0.6,1.9-0.5,4-2.4,4.6C154.9,127.2,154.5,127.3,154.1,127.3z M154.1,120.9c-0.3,0-0.5,0-0.8,0.1c-1.4,0.5-2.1,2.1-1.5,3.4
		c0.5,1.2,1.8,1.9,3.1,1.6c0.7-0.2,1.2-0.7,1.6-1.3c0.3-0.6,0.4-1.4,0.2-2l0,0C156.3,121.7,155.3,120.9,154.1,120.9L154.1,120.9z"/>
	
		<rect x="181.8" y="79.9" transform="matrix(0.9573 -0.2892 0.2892 0.9573 -22.8078 66.0641)" class="st2" width="60.7" height="60.7"/>
	<path class="st2" d="M191.4,148c-0.1,0-0.2,0-0.2-0.1c-0.1-0.1-0.2-0.2-0.3-0.3l-17.6-57.9c-0.1-0.3,0.1-0.5,0.3-0.6l58-17.6
		c0.1,0,0.3,0,0.4,0c0.1,0.1,0.2,0.2,0.2,0.3l17.6,57.9c0.1,0.3-0.1,0.5-0.3,0.6L191.6,148L191.4,148z M174.4,89.9l17.3,57l57-17.3
		l-17.3-57.1L174.4,89.9z"/>
	
		<rect x="192.9" y="139" transform="matrix(0.9573 -0.2892 0.2892 0.9573 -32.8823 70.8186)" class="st1" width="60.7" height="15.4"/>
	<path class="st2" d="M195.9,162.8c-0.1,0-0.2,0-0.2-0.1c-0.1-0.1-0.2-0.2-0.2-0.3l-4.5-14.7c-0.1-0.3,0.1-0.6,0.3-0.6l57.9-17.6
		c0.3-0.1,0.5,0.1,0.6,0.3l4.5,14.7c0.1,0.1,0.1,0.3,0,0.4c-0.1,0.1-0.2,0.2-0.3,0.3l-58,17.6L195.9,162.8z M192,147.9l4.2,13.8
		l57-17.3l-4.2-13.8L192,147.9z"/>
	<path class="st3" d="M199.4,150.3c-0.2,0-0.4-0.2-0.5-0.4c-0.1-0.3,0.1-0.6,0.3-0.6l44.7-13.6c0.3-0.1,0.5,0.1,0.6,0.4
		c0,0.2-0.1,0.5-0.3,0.6l-44.7,13.6C199.5,150.3,199.4,150.3,199.4,150.3z"/>
	<path class="st3" d="M201,155.4c-0.2,0-0.4-0.1-0.5-0.4c-0.1-0.3,0.1-0.6,0.3-0.6c0,0,0,0,0,0l35.9-10.9c0.3-0.1,0.5,0.1,0.6,0.4
		c0,0.2-0.1,0.5-0.3,0.6l-36,10.9L201,155.4z"/>
	<path class="st1" d="M197.3,127.5c-0.1,0-0.2,0-0.2-0.1c-0.1-0.1-0.2-0.2-0.2-0.3l-7.2-23.7c-0.1-0.1-0.1-0.3,0-0.4
		c0.1-0.1,0.2-0.2,0.3-0.3L225.7,92c0.3-0.1,0.6,0.1,0.6,0.3l7.1,23.7c0.1,0.1,0.1,0.3,0,0.4c-0.1,0.1-0.2,0.2-0.3,0.2l-35.7,10.8
		C197.4,127.5,197.4,127.5,197.3,127.5z M190.8,103.7l6.9,22.7l34.7-10.5l-6.9-22.7L190.8,103.7z"/>
	<path class="st1" d="M197.3,127.5c-0.3,0-0.5-0.2-0.5-0.5c0-0.1,0-0.2,0.1-0.2l9.1-17.1c0.1-0.1,0.2-0.2,0.3-0.2
		c0.1-0.1,0.3-0.1,0.4,0l17,9.1c0.3,0.1,0.4,0.4,0.3,0.7c-0.1,0.3-0.4,0.4-0.7,0.3c0,0,0,0-0.1,0l-16.6-8.9l-8.8,16.6
		C197.7,127.4,197.5,127.5,197.3,127.5z"/>
	<path class="st1" d="M219,117.2c-0.1,0-0.2,0-0.2-0.1c-0.2-0.1-0.3-0.4-0.2-0.7l4.3-7.7c0.1-0.2,0.4-0.3,0.6-0.2l8.7,3.7
		c0.3,0.1,0.4,0.4,0.3,0.7s-0.4,0.4-0.7,0.3c0,0,0,0,0,0l-8.2-3.5l-4.1,7.3C219.3,117.1,219.1,117.2,219,117.2z"/>
	<path class="st1" d="M215.8,108.5c-1.6,0-3-1.1-3.5-2.6c-0.6-1.9,0.5-4,2.4-4.6c1.9-0.6,4,0.5,4.6,2.4l0,0c0.6,1.9-0.5,4-2.4,4.6
		c0,0,0,0,0,0C216.5,108.5,216.2,108.5,215.8,108.5z M215.8,102.2c-0.3,0-0.5,0-0.8,0.1c-0.7,0.2-1.3,0.7-1.6,1.3
		c-0.3,0.6-0.4,1.4-0.2,2c0.4,1.4,1.9,2.2,3.3,1.8c0.7-0.2,1.2-0.7,1.6-1.3c0.3-0.6,0.4-1.4,0.2-2l0,0
		C218,103,217,102.2,215.8,102.2L215.8,102.2z"/>
	
		<rect x="243" y="60.7" transform="matrix(0.9568 -0.2907 0.2907 0.9568 -14.6503 83.3633)" class="st2" width="60.6" height="60.6"/>
	<path class="st2" d="M253.1,129.3c-0.1,0-0.2,0-0.2-0.1c-0.1-0.1-0.2-0.2-0.2-0.3L235,71c-0.1-0.3,0.1-0.6,0.3-0.6l0,0l57.9-17.6
		c0.1-0.1,0.3-0.1,0.4,0c0.1,0.1,0.2,0.2,0.3,0.3l17.6,58c0.1,0.3-0.1,0.5-0.3,0.6l-58,17.6C253.2,129.3,253.1,129.3,253.1,129.3z
		 M236.1,71.2l17.3,57l57-17.3l-17.3-57L236.1,71.2z"/>
	
		<rect x="254" y="119.6" transform="matrix(0.9568 -0.2907 0.2907 0.9568 -24.7384 88.1394)" class="st1" width="60.6" height="15.4"/>
	<path class="st2" d="M257.5,144c-0.1,0-0.2,0-0.2-0.1c-0.1-0.1-0.2-0.2-0.3-0.3l-4.5-14.7c-0.1-0.3,0.1-0.5,0.3-0.6l57.9-17.6
		c0.3-0.1,0.6,0.1,0.6,0.3c0,0,0,0,0,0l4.5,14.7c0,0.1,0,0.3,0,0.4c-0.1,0.1-0.2,0.2-0.3,0.2L257.7,144
		C257.7,144,257.6,144,257.5,144z M253.8,129.1l4.1,13.7l57-17.3l-4.2-13.8L253.8,129.1z"/>
	<path class="st3" d="M261,131.6c-0.2,0-0.4-0.1-0.5-0.4c-0.1-0.3,0.1-0.6,0.3-0.6l44.7-13.6c0.3-0.1,0.6,0.1,0.6,0.3c0,0,0,0,0,0
		c0.1,0.3-0.1,0.6-0.3,0.6l0,0l-44.7,13.6L261,131.6z"/>
	<path class="st3" d="M262.6,136.8c-0.2,0-0.4-0.1-0.5-0.4c-0.1-0.3,0.1-0.5,0.3-0.6l32.7-9.9c0.3-0.1,0.5,0,0.6,0.3c0,0,0,0,0,0
		c0.1,0.3-0.1,0.5-0.3,0.6l-32.7,9.9L262.6,136.8z"/>
	<path class="st1" d="M259,108.8c-0.2,0-0.4-0.2-0.5-0.4l-7.2-23.7c0-0.1,0-0.3,0-0.4c0.1-0.1,0.2-0.2,0.3-0.2l35.7-10.8
		c0.3-0.1,0.6,0.1,0.6,0.3l7.2,23.7c0,0.1,0,0.3,0,0.4c-0.1,0.1-0.2,0.2-0.3,0.2l-35.7,10.8L259,108.8z M252.4,84.9l6.9,22.7
		L294,97.1l-6.9-22.7L252.4,84.9z"/>
	<path class="st1" d="M259,108.8c-0.1,0-0.2,0-0.2-0.1c-0.2-0.1-0.3-0.4-0.2-0.7c0,0,0,0,0,0l9.1-17c0.1-0.1,0.2-0.2,0.3-0.3
		c0.1,0,0.3,0,0.4,0l17,9.1c0.2,0.1,0.3,0.4,0.2,0.7c-0.1,0.2-0.4,0.3-0.7,0.2l-16.6-8.9l-8.8,16.6
		C259.4,108.7,259.2,108.8,259,108.8z"/>
	<path class="st1" d="M280.6,98.5c-0.1,0-0.2,0-0.3-0.1c-0.2-0.1-0.3-0.4-0.2-0.7l4.3-7.6c0.1-0.2,0.4-0.3,0.6-0.2l8.7,3.7
		c0.3,0.1,0.4,0.4,0.2,0.7c-0.1,0.2-0.4,0.4-0.6,0.3l-8.2-3.5l-4.2,7.2C281,98.3,280.8,98.5,280.6,98.5z"/>
	<path class="st1" d="M277.5,89.8c-2,0-3.7-1.7-3.7-3.7c0-2,1.7-3.7,3.7-3.7c1.6,0,3,1.1,3.5,2.6l0,0c0.6,1.9-0.5,4-2.4,4.6
		c0,0,0,0,0,0C278.2,89.7,277.8,89.8,277.5,89.8z M277.5,83.5c-0.3,0-0.5,0-0.8,0.1c-1.4,0.4-2.2,1.9-1.8,3.3
		c0.4,1.4,1.9,2.2,3.3,1.8c0.7-0.2,1.2-0.7,1.6-1.3c0.3-0.6,0.4-1.4,0.2-2l0,0c-0.2-0.7-0.7-1.2-1.3-1.6
		C278.3,83.6,277.9,83.5,277.5,83.5L277.5,83.5z"/>
	<circle class="st3" cx="114.6" cy="91.3" r="6"/>
	<path class="st3" d="M124.6,83.8c-0.2,0-0.4-0.1-0.5-0.4c-0.1-0.3,0.1-0.6,0.3-0.6l54.7-16.6c0.3-0.1,0.5,0.1,0.6,0.3
		c0.1,0.3-0.1,0.6-0.3,0.6l-54.7,16.6L124.6,83.8z"/>
	<path class="st3" d="M126,88.4c-0.3,0-0.5-0.2-0.6-0.4c0-0.3,0.2-0.5,0.4-0.6l54.7-16.6c0.3-0.1,0.5,0.1,0.6,0.3
		c0.1,0.3-0.1,0.6-0.3,0.6l-54.7,16.6L126,88.4z"/>
	<path class="st3" d="M127.4,93c-0.2,0-0.4-0.1-0.5-0.4c-0.1-0.3,0.1-0.6,0.3-0.6l49.6-15.1c0.3-0.1,0.5,0.1,0.6,0.3c0,0,0,0,0,0
		c0.1,0.3,0,0.5-0.3,0.6c0,0,0,0,0,0l-49.6,15.1C127.5,93,127.4,93,127.4,93z"/>
	<path class="st3" d="M139.1,193.2c-0.2,0-0.4-0.1-0.5-0.4c-0.1-0.3,0.1-0.6,0.3-0.6l73.3-22.2c0.3-0.1,0.5,0.1,0.6,0.3
		c0.1,0.3-0.1,0.6-0.3,0.6l-73.3,22.2C139.2,193.2,139.2,193.2,139.1,193.2z"/>
	<path class="st1" d="M327.2,213.6c0,0-23.4-57.9-39.1-78.7c-2.1-2.8-5.1-3.5-7.3-2.2c-2.6,1.5-3,7-3,7s-6.2-4.1-9.4-3.6
		s-3.8,5.4-3.8,5.4s-6.7-2.7-9.7-0.5c-3,2.2-3.4,6.6-3.4,6.6s-34.4-31.2-38.2-33.9c-3.8-2.7-11.3,1.1-8.1,6.5
		c2,3.3,19.1,22.5,24.7,28.6s18.3,22.5,19.6,27.2c1.2,4.7,2.2,10-7.2,10c-9.5,0-18,1.1-22.3,4.3s-7.4,8.2-5.4,9.3
		c2,1.1,32.2,2.2,44.5,8.1c12.3,5.9,27.1,26.5,27.1,26.5L327.2,213.6z"/>
	<path class="st2" d="M286.1,234.8c-0.2,0-0.3-0.1-0.4-0.2c-0.2-0.2-14.9-20.5-26.9-26.3c-8.4-4.1-25.5-5.8-35.7-6.9
		c-5.5-0.6-8.2-0.9-8.9-1.3c-0.5-0.3-0.9-0.9-0.9-1.5c-0.1-2.2,2.7-6.1,6.2-8.7c4-2.9,11.6-4.4,22.6-4.4c3.4,0,5.6-0.7,6.7-2.1
		c1.4-1.8,0.8-4.5,0.1-7.2c-1.2-4.5-13.7-20.6-19.5-27c-5.8-6.4-22.7-25.4-24.8-28.7c-1.4-2-1.1-4.7,0.7-6.3
		c1.9-1.8,5.6-2.6,8.1-0.9c3.6,2.5,32.6,28.7,37.6,33.3c0.4-2.3,1.6-4.5,3.4-6c2.7-2,7.9-0.4,9.7,0.2c0.3-1.4,1.3-4.7,4.1-5.2
		c2.7-0.5,7.3,2.1,9,3.2c0.2-1.7,1-5.3,3.2-6.6c2.5-1.5,5.7-0.5,7.9,2.4c15.6,20.6,38.9,78.2,39.2,78.8c0.1,0.2,0,0.5-0.2,0.6
		l-41.1,20.7C286.2,234.8,286.2,234.8,286.1,234.8z M210.3,113.4c-1.5,0-3,0.6-4.1,1.6c-1.5,1.3-1.7,3.5-0.6,5.1
		c1.9,3.2,19,22.3,24.6,28.6c5.2,5.7,18.4,22.4,19.7,27.4c0.8,2.9,1.4,6-0.2,8.1c-1.3,1.7-3.7,2.5-7.5,2.5c-10.8,0-18.2,1.4-22,4.2
		c-3.5,2.6-5.9,6.2-5.8,7.8c0,0.3,0.1,0.6,0.4,0.7c0.5,0.3,4.4,0.7,8.5,1.1c10.3,1.1,27.4,2.9,36,7c11.5,5.6,25,23.4,27.1,26.3
		l40.3-20.3c-2.2-5.4-24.1-58.6-38.9-78.2c-1.9-2.5-4.5-3.3-6.6-2.1c-1.9,1.1-2.7,5.1-2.8,6.6c0,0.3-0.3,0.5-0.5,0.5
		c-0.1,0-0.2,0-0.3-0.1c-0.1,0-6.1-4-9-3.5c-2.8,0.5-3.4,4.9-3.4,4.9c0,0.2-0.1,0.3-0.2,0.4c-0.1,0.1-0.3,0.1-0.4,0
		c-0.1,0-6.5-2.6-9.3-0.5c-2.7,2-3.1,6.2-3.2,6.3c0,0.2-0.1,0.4-0.3,0.4c-0.2,0.1-0.4,0-0.5-0.1c-0.3-0.3-34.4-31.2-38.2-33.8
		C212.2,113.7,211.3,113.4,210.3,113.4z"/>
	<path class="st2" d="M348.3,267.9c-5.2-16-21.3-67.3-22-67s-50.9,24.2-50.9,24.2l3,42.9L348.3,267.9z"/>
	<path class="st2" d="M348.3,268.4h-70c-0.3,0-0.5-0.2-0.5-0.5l-3-42.8c0-0.2,0.1-0.4,0.3-0.5c2-1,50-23.7,51-24.1
		c0.1-0.1,0.3-0.1,0.4,0c0.7,0.3,3,6.8,15.7,46.7c2.7,8.6,5.1,16,6.6,20.6c0.1,0.3-0.1,0.6-0.3,0.6
		C348.4,268.4,348.4,268.4,348.3,268.4L348.3,268.4z M278.8,267.4h68.8c-1.5-4.6-3.8-11.8-6.4-19.9c-5.8-18.1-13.6-42.7-15.1-45.8
		c-4.5,2.1-46.2,21.8-50.2,23.8L278.8,267.4z"/>
	<path class="st1" d="M86.8,199.8c0,0,9.1-68.3,16.9-75.6c9.3-8.7,17.8-14.6,19.4-9.6c1.6,5,3,13.2-9.7,22.6l1.9,16.6
		c0,0,12.5,8.7,6,36"/>
	<path class="st2" d="M86.8,200.2L86.8,200.2c-0.3,0-0.5-0.3-0.5-0.5c0.4-2.8,9.2-68.5,17.1-75.9c9-8.4,15.1-12.3,18.2-11.5
		c1,0.3,1.7,1,2,2c3.5,11.3-3.3,18.2-9.7,22.9l1.8,16.1c1.6,1.2,12.2,10.5,6,36.3c-0.1,0.2-0.3,0.4-0.5,0.3c0,0,0,0,0,0
		c-0.2-0.1-0.4-0.3-0.3-0.6c6.4-26.7-5.7-35.4-5.8-35.5c-0.1-0.1-0.2-0.2-0.2-0.3l-1.9-16.6c0-0.2,0.1-0.3,0.2-0.4
		c11.9-8.7,11.3-16.4,9.6-22.1c-0.1-0.7-0.7-1.2-1.3-1.4c-2.6-0.7-8.8,3.3-17.3,11.2c-7.6,7.1-16.7,74.6-16.8,75.3
		C87.3,200,87.1,200.2,86.8,200.2C86.8,200.2,86.8,200.2,86.8,200.2z"/>
</g>
</svg>
